<svg xmlns="http://www.w3.org/2000/svg" xmlns:xlink="http://www.w3.org/1999/xlink" id="Layer_1" x="0px" y="0px" viewBox="0 0 438.7 479.9" style="enable-background:new 0 0 438.7 479.9;" xml:space="preserve">
<g id="XMLID_1_">
	<g id="XMLID_11_">
		<path d="M271.3,343.9c-21.7,3.9-50.5-0.3-72.3-2.9c-37.7-4.5-76.4-1.7-114-2.3c0.4,17.8,3,32,9.5,47.1c25-15.4,56.2-23.2,83.4-24    c29.6-0.8,58.5,4.1,88-0.5c20.3-3.2,37.9-4.5,56.8-2.6c1.7-4.4,3.1-8.9,4.4-13.4C305.5,343.7,294.6,339.8,271.3,343.9z"></path>
	</g>
	<g id="XMLID_10_">
		<path d="M257.1,310.4c-26-3.2-49.7-11.5-74.9-18.5c-30.7-8.5-62-24.4-93.5-24.8c-0.2,14-0.6,47.6-1.9,59.2    c15.4,0.1,31.1-1.5,46.2-2c31.4-1.1,63.5-2.8,94.8,2.3c35,5.7,69.8,2.2,104.9,3.4c0.4-2.8-0.2-12.8,0.2-15.6    C307.9,310.7,282.4,313.4,257.1,310.4z"></path>
	</g>
	<g id="XMLID_9_">
		<path d="M255.2,380.6c-22.2,3.1-42.8,1.4-65,0.6c-33.7-1.3-60.5,1.1-90.2,18.7c18.2,37.9,51.7,56.8,93.3,56.9    c31.8,0,66.8-14.9,99.8-51c11.6-11.5,13.5-13,19.9-27.5C293.4,376,275.6,377.7,255.2,380.6z"></path>
	</g>
	<g id="XMLID_8_">
		<path d="M156.7,172.3c29,19,51.9,46.3,81.4,64.4c29.3,18.1,61.2,28.3,94.9,28.8c-1.7-30.7-7.9-50.7-16.9-76    c-23.7-60.9-77.4-155.2-137.2-155.2c-28.2,0-90.2,52.3-90.2,109C112.4,148.8,135.2,158.2,156.7,172.3z"></path>
	</g>
	<g id="XMLID_7_">
		<path d="M252.2,264.6c-30.7-15.9-52.8-40.1-80.1-60.7c-26.5-19.9-54.3-33.4-83.4-41.2c-1.1,16.5-1.3,59.8-1.2,76.8    c31.8,1.1,62.7,13.4,93.4,30.5c28.8,16.1,54.6,15.1,87,23.9c22.1,5.9,44,6.4,66.1,5.2c0-1.9-0.1-14.3-0.1-16.1    C305.8,283.5,277.5,277.6,252.2,264.6z"></path>
	</g>
</g>
</svg>