<svg xmlns="http://www.w3.org/2000/svg" xmlns:xlink="http://www.w3.org/1999/xlink" width="1286px" height="144px" viewBox="0 0 1286 144"><title>Brimstone_Logo_BW-01</title><g id="Page-1" stroke="none" stroke-width="1" fill="none" fill-rule="evenodd"><g id="Brimstone_Logo_BW-01" fill="#000000" fill-rule="nonzero"><g id="XMLID_130_"><g id="XMLID_139_" transform="translate(0.000000, 103.000000)"><path d="M63.7,2.1 C56.3,3.4 46.5,2 39.1,1.1 C26.3,-0.4 13.1,0.5 0.4,0.3 C0.5,6.3 1.4,11.2 3.6,16.3 C12.1,11.1 22.7,8.4 31.9,8.2 C42,7.9 51.8,9.6 61.8,8 C68.7,6.9 74.7,6.5 81.1,7.1 C81.7,5.6 82.2,4.1 82.6,2.6 C75.3,2 71.6,0.7 63.7,2.1 Z" id="Path"></path></g><g id="XMLID_137_" transform="translate(1.000000, 79.000000)"><path d="M57.9,14.7 C49.1,13.6 41,10.8 32.4,8.4 C22,5.5 11.3,0.1 0.6,0 C0.5,4.8 0.4,16.2 1.42108547e-14,20.1 C5.2,20.1 10.6,19.6 15.7,19.4 C26.4,19 37.3,18.5 47.9,20.2 C59.8,22.2 71.6,20.9 83.6,21.4 C83.7,20.4 83.5,17.1 83.7,16.1 C75.1,14.8 66.5,15.7 57.9,14.7 Z" id="Path"></path></g><g id="XMLID_135_" transform="translate(5.000000, 116.000000)"><path d="M53.2,1.6 C45.7,2.6 38.6,2.1 31.1,1.8 C19.6,1.4 10.5,2.2 0.4,8.1 C6.6,21 18,27.4 32.1,27.4 C42.9,27.4 54.8,22.3 66,10.1 C69.9,6.2 70.6,5.7 72.7,0.8 C66.2,-5.55111512e-17 60.2,0.6 53.2,1.6 Z" id="Path"></path></g><g id="XMLID_133_" transform="translate(1.000000, 0.000000)"><path d="M23.8,46.8 C33.7,53.3 41.4,62.5 51.5,68.7 C61.4,74.8 72.3,78.3 83.7,78.5 C83.1,68.1 81,61.3 78,52.7 C69.9,32 51.7,-1.42108547e-14 31.4,-1.42108547e-14 C21.8,-1.42108547e-14 0.7,17.8 0.7,37.1 C8.7,38.8 16.5,42 23.8,46.8 Z" id="Path"></path></g><g id="XMLID_131_" transform="translate(1.000000, 43.000000)"><path d="M56.2,35.1 C45.8,29.7 38.2,21.5 29,14.5 C20,7.7 10.5,3.1 0.7,0.5 C0.3,6.1 0.3,20.8 0.3,26.6 C11.1,27 21.6,31.2 32,37 C41.8,42.5 50.6,42.1 61.6,45.1 C69.1,47.1 76.6,47.3 84.1,46.9 C84.1,46.3 84.1,42.1 84.1,41.4 C74.4,41.6 64.8,39.6 56.2,35.1 Z" id="Path"></path></g></g><g id="XMLID_107_" transform="translate(136.000000, 28.000000)"><path d="M81.8,77.3 C80.9,79.8 79.6,81.9 78.1,83.8 C76.6,85.7 74.9,87.3 73,88.6 C71.1,89.9 69.3,90.9 67.4,91.6 C64.2,92.8 60.5,93.5 56.5,93.8 C52.5,94.1 48.6,94.2 44.9,94.2 L0.8,94.2 L0.8,92.9 C2.9,92.6 4.9,92 6.9,91.2 C8.8,90.4 10.4,89.4 11.6,88 C12,87.5 12.4,86.7 12.6,85.8 C12.9,84.8 13.1,83.7 13.3,82.4 C13.5,81.1 13.7,79.8 13.8,78.4 C13.9,77 13.9,75.6 13.9,74.2 C13.9,73 13.9,71.4 14,69.3 C14,67.3 14.1,65 14.1,62.6 C14.1,60.2 14.2,57.7 14.2,55.1 C14.2,52.5 14.2,50 14.2,47.7 C14.2,45.1 14.2,42.9 14.2,40.9 C14.2,38.9 14.2,37.1 14.2,35.3 C14.2,33.4 14.2,31.5 14.1,29.5 C14,27.5 14,25.3 14,22.7 C14,21.2 13.9,19.6 13.9,18 C13.8,16.4 13.7,14.9 13.5,13.5 C13.3,12.1 13,10.8 12.7,9.6 C12.4,8.4 12,7.6 11.5,7.1 C10.2,5.7 8.9,4.8 7.7,4.3 C6.4,3.8 4.6,3.5 2.3,3.2 L2.3,1.9 L45.4,1.9 C48.6,1.9 51.7,2.1 54.7,2.5 C57.6,2.9 60.5,3.6 63.2,4.6 C67.6,6.2 71.1,8.7 73.9,12 C76.7,15.3 78.1,19.6 78.1,24.7 C78.1,30.3 76.3,34.9 72.7,38.3 C69.1,41.8 64.4,44.1 58.6,45.3 L58.6,46 C61.7,46.3 64.7,47.1 67.7,48.2 C70.7,49.3 73.3,50.9 75.7,52.9 C78,54.9 79.9,57.2 81.3,59.9 C82.7,62.6 83.4,65.6 83.4,69 C83.2,72 82.8,74.8 81.8,77.3 Z M60,13.5 C57.8,10.2 55.1,7.8 51.9,6.3 C48.1,4.6 43.2,3.8 37.2,3.8 C35.4,3.8 33.8,3.9 32.3,4.1 C30.8,4.3 29.7,4.5 29,4.7 C28.9,5.2 28.8,5.7 28.8,6.1 C28.7,6.5 28.6,7.1 28.6,7.7 C28.6,8.3 28.5,9.1 28.5,10.1 C28.5,11 28.4,12.3 28.3,13.8 C28.2,16.8 28.2,20.1 28.1,23.6 C28.1,27.2 28,30.6 28,33.8 C28,36.9 28,39.7 28,42 C28,44.3 28,45.7 28,46.1 C30.8,46.1 33.2,46.1 35.2,46.1 C37.2,46.1 38.7,46.1 39.9,46 C47.6,45.6 53.4,43.4 57.3,39.5 C61.3,35.6 63.3,30.7 63.3,24.9 C63.3,20.6 62.2,16.8 60,13.5 Z M67.1,63.4 C66.3,61.2 65.2,59.2 63.8,57.4 C62.4,55.6 60.7,54 58.8,52.7 C56.9,51.4 54.8,50.3 52.5,49.6 C50.6,49 48.8,48.6 46.9,48.4 C45.1,48.2 42.9,48.1 40.4,48.1 L28,48.1 C28,50.8 28,53.6 28,56.3 C28,59 28,61.6 28,64.1 C28,66.5 28,68.7 28.1,70.7 C28.2,72.7 28.2,74.4 28.2,75.9 C28.3,79.1 28.4,81.8 28.6,83.9 C28.8,86 29.4,87.7 30.5,89.1 C31.3,90 32.4,90.8 33.9,91.5 C35.4,92.1 37.7,92.5 40.6,92.5 C43.1,92.5 45.8,92.3 48.7,92 C51.6,91.7 54.4,90.8 57.1,89.3 C60.7,87.4 63.5,84.9 65.4,81.8 C67.4,78.7 68.3,75 68.3,70.6 C68.3,67.9 67.9,65.6 67.1,63.4 Z" id="XMLID_126_"></path><path d="M205.1,94.1 C204.3,93.3 203.8,92.8 203.4,92.4 C203.1,92 202.7,91.6 202.2,91.1 C201.8,90.6 201.2,89.8 200.6,88.9 C200,87.9 199,86.5 197.6,84.5 C196,82.1 194.6,80 193.3,78 C192.1,76.1 190.8,74.2 189.5,72.3 C188.2,70.4 186.8,68.5 185.4,66.6 C183.9,64.7 182.1,62.5 180.1,60.1 C178.4,58.1 176.5,56.3 174.5,54.6 C172.5,52.9 170.4,51.8 168.2,51.4 C166.6,51.1 165.3,50.9 164.5,50.9 C163.7,50.9 162.7,50.9 161.6,50.8 C161.6,56.3 161.6,61.1 161.6,65.3 C161.6,69.4 161.6,72.8 161.7,75.6 C161.8,78.3 161.9,80.7 162,82.6 C162.1,84.6 162.6,86.2 163.4,87.5 C164.1,88.6 165.4,89.7 167.4,90.9 C169.4,92.1 172.1,92.7 175.6,92.9 L175.6,94.2 L134.7,94.2 L134.7,92.9 C136.8,92.6 138.9,92 140.8,91.4 C142.8,90.7 144.3,89.7 145.4,88.3 C145.8,87.8 146.2,87 146.4,86 C146.7,85 146.9,83.8 147,82.6 C147.1,81.3 147.2,80 147.3,78.5 C147.4,77 147.4,75.6 147.4,74.3 C147.4,73.1 147.4,71.5 147.5,69.4 C147.5,67.4 147.6,65.1 147.6,62.7 C147.7,60.3 147.7,57.8 147.7,55.2 C147.7,52.6 147.7,50.1 147.7,47.8 L147.7,22.8 C147.7,21.3 147.7,19.7 147.6,18.1 C147.5,16.5 147.5,15 147.3,13.6 C147.2,12.2 147,10.9 146.7,9.8 C146.4,8.6 146,7.8 145.5,7.3 C144.2,5.9 142.8,5 141.2,4.6 C139.6,4.1 137.7,3.7 135.4,3.4 L135.4,2.1 C136.1,2.1 137.8,2.1 140.6,2.1 C143.5,2.1 146.8,2.1 150.5,2 C154.2,1.9 157.8,1.9 161.5,1.9 C165.1,1.9 168.1,1.9 170.4,1.9 C176.1,1.9 181.2,2.1 185.6,2.4 C190,2.7 194.1,3.9 197.7,5.9 C201.4,7.9 204.5,10.5 206.8,13.9 C209.1,17.3 210.3,21.5 210.3,26.6 C210.3,29.7 209.7,32.6 208.6,35.1 C207.4,37.6 205.9,39.8 204,41.8 C202.1,43.7 199.9,45.3 197.3,46.7 C194.7,48.1 192.1,49.2 189.2,50.2 L189.2,50.6 C190.6,51.4 192.1,52.5 193.4,53.9 C194.8,55.4 196.1,57 197.4,58.8 C199.6,62.1 202,65.5 204.6,69.3 C207.2,73.1 209.5,76.4 211.6,79.3 C214.7,83.7 217.8,87 220.8,89 C223.8,91 227.3,92.4 231.3,93 L231.3,94.3 L205.1,94.3 L205.1,94.1 Z M192.4,14.5 C190.3,11.2 187.2,8.5 183.1,6.6 C181.1,5.7 178.9,5 176.6,4.5 C174.3,4.1 172,3.9 169.5,3.9 C167.7,3.9 166.3,3.9 165.1,4 C164,4.1 163.1,4.2 162.5,4.3 C162.4,4.8 162.3,5.3 162.2,5.6 C162.1,6 162,6.5 162,7.1 C162,7.7 161.9,8.5 161.9,9.6 C161.8,10.7 161.8,12.2 161.7,14.1 C161.6,17.1 161.5,20.5 161.5,24.2 C161.5,27.9 161.4,31.6 161.4,35.1 C161.4,38.6 161.4,41.7 161.4,44.3 C161.4,46.9 161.4,48.5 161.4,49.1 C164.9,49.1 168.1,48.9 171.2,48.7 C174.2,48.4 177.2,47.8 180,46.9 C182.7,46 185.1,44.9 187,43.4 C189,41.9 190.6,40.3 191.8,38.5 C193,36.7 194,34.7 194.6,32.6 C195.2,30.5 195.5,28.3 195.5,25.9 C195.6,21.6 194.5,17.8 192.4,14.5 Z" id="XMLID_123_"></path><path d="M271,94.1 L271,92.8 C273.1,92.5 275.1,91.9 277,91.1 C278.8,90.3 280.4,89.2 281.6,87.8 C282,87.3 282.3,86.6 282.6,85.6 C282.8,84.7 283,83.6 283.1,82.3 C283.2,81 283.3,79.7 283.4,78.3 C283.4,76.9 283.5,75.5 283.5,74.1 C283.5,72.9 283.5,71.3 283.6,69.2 C283.7,67.2 283.7,64.9 283.7,62.5 C283.7,60.1 283.8,57.6 283.8,55 C283.8,52.4 283.8,49.9 283.8,47.6 L283.8,22.8 C283.8,21.3 283.8,19.7 283.8,18.2 C283.8,16.6 283.7,15.2 283.6,13.9 C283.5,12.6 283.3,11.4 283,10.3 C282.7,9.2 282.4,8.4 281.9,7.8 C280.7,6.4 279.2,5.3 277.5,4.7 C275.8,4.1 273.8,3.6 271.6,3.4 L271.6,2.1 L309.8,2.1 L309.8,3.4 C308,3.7 306.1,4.1 304,4.8 C302,5.5 300.4,6.8 299.3,8.9 C298.6,10.4 298.1,12.2 298.1,14.4 C298,16.6 298,18.7 297.9,20.7 C297.9,22.8 297.9,24.9 297.8,27 C297.8,29.1 297.7,31.2 297.7,33.3 C297.7,35.4 297.7,37.6 297.7,39.9 C297.7,42.1 297.7,44.6 297.7,47.2 L297.7,76.1 C297.7,78.6 297.7,80.9 297.8,83.3 C297.9,85.6 298.3,87.2 298.9,88.2 C299.9,89.6 301.5,90.8 303.8,91.5 C306,92.3 308,92.7 309.8,92.9 L309.8,94.2 L271,94.2 L271,94.1 Z" id="XMLID_121_"></path><path d="M433.2,94.1 L433.2,92.7 C436.9,92.5 439.9,91.8 442.4,90.4 C444.9,89 446.5,87.5 447.4,85.7 C447.9,84.6 448.3,83.2 448.5,81.5 C448.8,79.8 448.9,78.2 449,76.5 C449.2,70.9 449.3,65.5 449.3,60.4 C449.3,55.3 449.3,50 449.3,44.6 L449.3,8.4 C446.5,14.7 443.9,20.5 441.6,25.8 C439.3,31.1 436.9,36.2 434.6,41.3 C432.3,46.3 430,51.5 427.6,56.7 C425.3,61.9 422.7,67.7 419.9,74 C419.5,74.9 418.9,76.2 418.1,78 C417.3,79.8 416.6,81.7 415.8,83.6 C415,85.5 414.3,87.3 413.6,88.8 C412.9,90.4 412.5,91.4 412.3,91.9 L411.5,91.9 C408.8,85.6 406.1,79.3 403.4,73.1 C400.7,66.9 398.1,60.9 395.5,55.1 C392.9,49.4 390.6,44 388.3,38.9 C386.1,33.9 384.1,29.4 382.3,25.5 C380.5,21.6 379,18.3 377.9,15.7 C376.8,13.1 376,11.3 375.5,10.3 C375.5,15.9 375.5,20.9 375.4,25.2 C375.4,29.5 375.3,33.8 375.3,38 C375.2,42.2 375.2,46.7 375.2,51.4 C375.2,56.1 375.2,61.5 375.2,67.8 C375.2,71.8 375.3,75.3 375.6,78.2 C375.8,81.1 376.5,83.6 377.5,85.6 C378.5,87.6 380.1,89.2 382.2,90.3 C384.3,91.4 387.2,92.3 390.8,92.8 L390.8,94.1 L357.5,94.1 L357.5,92.8 C360.5,92.2 362.9,91.3 364.8,90.2 C366.7,89 368.1,87.5 369.3,85.4 C370.4,83.4 371.2,80.8 371.7,77.8 C372.2,74.8 372.5,71.1 372.6,66.7 C372.8,63 372.9,58.7 373,53.7 C373.1,48.7 373.1,43.4 373.1,37.7 C373.1,35.2 373.1,33.1 373.1,31.4 C373.1,29.7 373.1,28.1 373.1,26.6 C373.1,25 373.1,23.3 373.1,21.6 C373.1,19.9 373.1,17.8 373,15.3 C372.9,12.9 372.4,11 371.5,9.5 C370.5,8 369.4,6.8 368.2,6 C366.9,5.2 365.6,4.5 364.1,4.2 C362.7,3.8 361.4,3.5 360.4,3.4 L360.4,2.1 L387.6,2.1 L418.1,71.6 C421.8,63.5 425.5,55.4 429.1,47.4 C432.7,39.4 435.9,32.1 438.7,25.7 C441.5,19.2 443.9,13.8 445.7,9.5 C447.5,5.2 448.6,2.7 448.8,2 L476,2 L476,3.3 C472.5,3.4 469.8,4.1 468,5.5 C466.2,6.9 464.9,8.5 464.2,10.4 C463.7,11.8 463.3,14.1 463.2,17.2 C463,20.3 462.9,23.3 462.8,26.3 C462.7,30.4 462.7,34.4 462.7,38.2 C462.7,42 462.7,45.9 462.7,49.8 C462.7,54.4 462.7,59 462.7,63.6 C462.7,68.1 462.7,72.9 462.8,77.9 C462.8,79.5 462.9,81.2 463.1,82.8 C463.3,84.5 463.7,85.8 464.2,86.7 C464.3,86.9 464.6,87.3 465.2,87.9 C465.8,88.5 466.5,89.2 467.5,89.9 C468.5,90.6 469.8,91.3 471.4,91.8 C472.9,92.4 474.7,92.7 476.8,92.8 L476.8,94.1 L433.2,94.1 L433.2,94.1 Z" id="XMLID_119_"></path><path d="M588.3,80 C586.6,83.3 584.3,86 581.4,88.3 C578.5,90.6 574.9,92.3 570.9,93.4 C566.8,94.5 562.3,95.1 557.5,95.1 C553.3,95.1 549.7,94.8 546.8,94.3 C543.8,93.8 541.4,93.2 539.4,92.4 C537.4,91.7 536,91 535,90.4 C534,89.8 533.4,89.5 533.1,89.5 C532.8,89.5 532.3,90 531.4,91 C530.5,92 529.8,93 529.1,93.9 L528,93.9 L527.6,68.5 L528.9,68.5 C529.7,70.8 530.6,73 531.8,75.2 C533,77.4 534.3,79.4 535.7,81.3 C537.1,83.2 538.6,84.9 540.2,86.3 C541.8,87.7 543.3,88.9 544.7,89.6 C546.1,90.4 548,91.1 550.4,91.9 C552.8,92.7 555.1,93 557.3,93 C563.6,93 568.7,91.3 572.6,87.8 C576.5,84.3 578.5,79.7 578.5,73.8 C578.5,71.4 578.1,69.3 577.4,67.5 C576.6,65.7 575.6,64.1 574.3,62.8 C573,61.5 571.4,60.4 569.6,59.4 C567.8,58.5 565.9,57.6 563.8,56.8 C561.8,56 560,55.4 558.4,54.9 C556.9,54.4 555.5,53.9 554.1,53.4 C552.8,52.9 551.4,52.5 550,52 C548.6,51.5 546.9,50.9 545,50.1 C542.8,49.2 540.6,48.1 538.6,46.6 C536.6,45.1 534.8,43.4 533.2,41.4 C531.7,39.4 530.4,37.2 529.5,34.7 C528.5,32.3 528.1,29.7 528.1,27 C528.1,22.4 529,18.4 530.6,15.1 C532.3,11.8 534.6,9 537.4,6.8 C540.2,4.6 543.5,2.9 547.2,1.9 C550.9,0.8 554.8,0.3 558.9,0.3 C562.8,0.3 566,0.6 568.8,1.3 C571.5,1.9 573.8,2.6 575.5,3.4 C577.2,4.2 578.6,4.9 579.5,5.5 C580.4,6.1 580.9,6.5 581,6.5 C581.3,6.5 581.8,6 582.6,5 C583.4,4 584.1,3 584.8,1.9 L586.2,1.9 L586.2,25.5 L584.8,25.5 C583.8,22.7 582.5,19.9 580.8,17.1 C579.2,14.3 577.3,11.9 575.2,9.7 C573.1,7.5 570.7,5.8 567.9,4.4 C565.2,3 562.2,2.4 558.8,2.4 C556.2,2.4 553.7,2.8 551.3,3.6 C548.9,4.4 546.9,5.5 545.2,7.1 C543.4,8.6 542.1,10.5 541.1,12.8 C540.1,15.1 539.6,17.7 539.6,20.5 C539.6,25 541,28.6 543.7,31.4 C546.4,34.1 549.9,36.3 554.3,37.9 C556,38.6 557.6,39.2 559.1,39.7 C560.6,40.2 562.1,40.7 563.5,41.2 C565,41.7 566.4,42.2 567.9,42.7 C569.4,43.2 570.9,43.8 572.5,44.4 C578.3,46.5 582.8,49.6 586,53.7 C589.2,57.7 590.8,62.8 590.8,68.8 C590.8,73.1 590,76.7 588.3,80 Z" id="XMLID_117_"></path><path d="M729.8,26.2 C729.1,24.7 728.3,23.1 727.4,21.4 C726.5,19.7 725.5,18.2 724.5,16.7 C723.5,15.3 722.6,13.9 721.6,12.7 C720.7,11.5 719.8,10.5 719.2,9.9 C717.4,8.2 715.5,7.1 713.4,6.5 C711.3,5.9 708.7,5.6 705.4,5.5 C703.8,5.5 702.4,5.5 701.2,5.4 C700,5.4 698.8,5.3 697.6,5.3 C696.5,5.3 695.2,5.3 693.9,5.3 C692.6,5.3 691,5.3 689.2,5.3 C689.2,7.4 689.2,10.3 689.1,14 C689.1,17.7 689,21.5 689,25.5 C689,29.5 689,33.5 689,37.4 C689,41.2 689,44.5 689,47.1 L689,75.5 C689,78 689.1,80.3 689.2,82.6 C689.3,84.9 689.8,86.5 690.4,87.4 C691.7,89.3 693.5,90.5 695.8,91.2 C698.1,91.9 700.2,92.4 702.1,92.7 L702.1,94 L660.5,94 L660.5,92.7 C662.7,92.4 664.9,92 666.9,91.4 C668.9,90.8 670.9,89.4 672.9,87.2 C673.3,86.8 673.6,86.1 673.9,85.1 C674.1,84.1 674.3,83 674.4,81.8 C674.5,80.6 674.6,79.2 674.6,77.8 C674.7,76.4 674.7,74.9 674.7,73.6 C674.7,72.4 674.7,70.8 674.8,68.9 C674.8,66.9 674.9,64.8 674.9,62.4 C674.9,60 675,57.6 675,55 C675,52.4 675,50 675,47.7 L675,5.4 C673.2,5.4 671.6,5.4 670.3,5.4 C669,5.4 667.8,5.4 666.6,5.4 C665.5,5.4 664.3,5.4 663.1,5.5 C661.9,5.5 660.4,5.6 658.8,5.6 C655.6,5.7 652.9,6.1 650.8,6.8 C648.7,7.5 646.8,8.7 645,10.4 C644.3,11 643.5,11.9 642.6,13.1 C641.7,14.3 640.8,15.6 639.8,17 C638.8,18.4 637.9,19.9 637,21.5 C636.1,23.1 635.4,24.7 634.9,26.2 L633.8,25.8 L637.6,1.5 C639.6,1.9 641.4,2.3 643,2.5 C644.7,2.8 647.1,2.9 650.2,3 C653.4,3.1 656.3,3.1 658.9,3.2 C661.5,3.2 663.9,3.3 666.3,3.3 C668.7,3.3 671.1,3.3 673.6,3.3 C676.2,3.3 679,3.3 682.2,3.3 C685.4,3.3 688.2,3.3 690.6,3.3 C693.2,3.3 695.6,3.3 698,3.2 C700.4,3.1 702.9,3.1 705.4,3.1 C708,3.1 710.9,3 714.1,3 C716.9,2.9 719.2,2.7 721.1,2.3 C722.9,1.9 724.8,1.4 726.8,0.8 L730.9,25.7 L729.8,26.2 Z" id="XMLID_115_"></path><path d="M863.4,66.4 C860.8,72.2 857.4,77.2 853,81.5 C848.6,85.8 843.5,89.1 837.6,91.4 C831.8,93.7 825.6,94.9 819,94.9 C812.5,94.9 806.4,93.8 800.6,91.5 C794.8,89.2 789.7,86.1 785.4,81.9 C781,77.8 777.6,72.8 775.1,67.1 C772.6,61.3 771.3,55 771.3,48.1 C771.3,40.8 772.6,34.2 775.3,28.4 C778,22.6 781.5,17.6 786,13.6 C790.5,9.6 795.7,6.4 801.7,4.3 C807.7,2.1 814.1,1 820.7,1 C827.9,1 834.4,2.3 840.2,4.8 C845.9,7.4 850.8,10.8 854.8,15.1 C858.8,19.4 861.9,24.4 864,30 C866.1,35.6 867.2,41.5 867.2,47.6 C867.3,54.3 866,60.6 863.4,66.4 Z M849.4,31.9 C848.1,26.6 846.1,21.8 843.4,17.5 C840.7,13.2 837.4,9.7 833.4,7 C829.4,4.3 824.7,3 819.2,3 C813.6,3 808.9,4.3 804.8,7 C800.7,9.7 797.4,13.2 794.8,17.4 C792.2,21.7 790.3,26.5 789.1,31.9 C787.9,37.3 787.2,42.8 787.2,48.3 C787.2,54.1 787.9,59.7 789.2,65 C790.6,70.4 792.6,75.1 795.3,79.2 C798,83.3 801.3,86.6 805.4,89 C809.4,91.5 814.1,92.7 819.5,92.7 C824.9,92.7 829.5,91.3 833.5,88.6 C837.5,85.9 840.8,82.4 843.4,78.1 C846,73.8 848,69 849.4,63.6 C850.7,58.2 851.4,52.9 851.4,47.5 C851.4,42.4 850.8,37.2 849.4,31.9 Z" id="XMLID_112_"></path><path d="M1009.8,5.8 C1007.9,7 1006.4,8.8 1005.4,11.3 C1004.8,12.6 1004.4,14.9 1004.2,18.4 C1004,21.9 1003.9,25.5 1003.7,29.5 C1003.5,33.2 1003.4,37.5 1003.3,42.5 C1003.2,47.5 1003.1,52.8 1003.1,58.5 C1003.1,60.9 1003.1,63.6 1003.1,66.7 C1003.1,69.7 1003.2,72.7 1003.2,75.8 C1003.2,78.9 1003.3,82 1003.3,85.1 C1003.3,88.2 1003.3,90.9 1003.3,93.4 C1003.3,93.7 1003.2,94 1003,94.2 C1002.8,94.4 1002.5,94.5 1002,94.5 C1001.3,94.5 1000.6,94.1 999.7,93.2 C992.5,84.9 985.9,77.2 979.9,70.2 C973.9,63.2 968.3,56.6 962.8,50.2 C957.4,43.9 952.1,37.7 946.9,31.6 C941.7,25.6 936.2,19.3 930.4,12.8 L930.4,66.8 C930.4,71.2 930.5,75.1 930.7,78.6 C930.9,82.1 931.5,84.7 932.3,86.4 C933.2,88.4 934.7,89.8 936.7,90.8 C938.7,91.8 941.4,92.5 944.9,92.9 L944.9,94.2 L913.5,94.2 L913.5,92.9 C915.5,92.6 917.6,92.1 919.6,91.3 C921.6,90.5 923.2,89.2 924.4,87.3 C925.6,85.5 926.4,82.9 926.7,79.4 C927,75.9 927.3,71.7 927.5,66.9 C927.7,63.2 927.8,58.9 927.9,53.9 C928,48.9 928,43.6 928,37.9 C928,35.4 928,33.4 928,31.8 C928,30.2 928,28.6 928,27.1 C928,25.5 928,24 928,22.4 C928,20.7 927.9,18.6 927.9,16.1 C927.6,13.6 927,11.6 926.1,10 C925.1,8.4 924.1,7.2 922.8,6.3 C921.5,5.4 920.1,4.8 918.7,4.4 C917.2,4 915.8,3.7 914.4,3.6 L914.4,2.3 L940.4,2.3 L1001,73.1 L1001,29.5 C1001,26.1 1001,22.8 1000.9,19.7 C1000.8,16.6 1000.4,14.1 999.8,12.3 C998.9,9.9 997.4,8 995.3,6.5 C993.1,5 990,4 985.9,3.4 L985.9,2.1 L1017.6,2.1 L1017.6,3.4 C1014.3,3.8 1011.8,4.6 1009.8,5.8 Z" id="XMLID_110_"></path><path d="M1143,94.1 L1064.8,94.1 L1064.8,92.8 C1066.9,92.5 1068.9,91.9 1070.8,91.1 C1072.6,90.3 1074.1,89.3 1075.3,87.9 C1075.7,87.4 1076.1,86.6 1076.3,85.7 C1076.5,84.7 1076.8,83.6 1077,82.3 C1077.2,81 1077.4,79.7 1077.4,78.3 C1077.5,76.9 1077.5,75.5 1077.5,74.1 C1077.5,72.9 1077.5,71.3 1077.6,69.2 C1077.6,67.2 1077.7,64.9 1077.7,62.5 C1077.8,60.1 1077.8,57.6 1077.8,55 C1077.8,52.4 1077.8,49.9 1077.8,47.6 L1077.8,22.8 C1077.8,21.3 1077.8,19.7 1077.7,18.1 C1077.6,16.5 1077.6,15 1077.5,13.5 C1077.4,12 1077.2,10.8 1076.9,9.6 C1076.6,8.4 1076.2,7.6 1075.7,7.1 C1074.4,5.7 1073.1,4.9 1071.6,4.5 C1070.1,4.1 1068.3,3.8 1066,3.4 L1066,2.1 L1136.6,2.1 L1145.3,23.2 L1144,23.8 C1137.1,15.2 1130.6,9.4 1124.6,6.4 C1123.2,5.7 1120.5,5.1 1116.6,4.6 C1112.7,4.1 1107.9,3.8 1102.3,3.8 C1100.5,3.8 1098.7,3.9 1096.7,4 C1094.8,4.1 1093.4,4.3 1092.6,4.4 C1092.4,5.8 1092.3,8.6 1092.1,12.8 C1092,17.1 1091.9,22 1091.9,27.6 C1091.9,30.8 1091.9,33.6 1091.9,35.8 C1091.9,38 1091.9,39.8 1092,41.2 C1092,42.6 1092.1,43.7 1092.1,44.5 C1092.1,45.2 1092.1,45.7 1092.1,45.9 C1092.5,45.9 1093.4,45.9 1094.6,45.9 C1095.9,45.9 1097.4,45.9 1099,45.8 C1100.7,45.7 1102.3,45.6 1104,45.5 C1105.7,45.4 1107.1,45.2 1108.2,44.9 C1110.8,44.3 1112.9,43.5 1114.6,42.5 C1116.3,41.5 1117.7,40.2 1118.7,38.8 C1119.8,37.4 1120.6,35.7 1121.3,33.8 C1121.9,31.9 1122.5,29.7 1123,27.3 L1124.5,27.3 L1124.5,67.6 L1123,67.6 C1122.3,64.9 1121.3,62.1 1119.9,59.2 C1118.5,56.3 1117,54.1 1115.5,52.7 C1114.1,51.5 1112.5,50.5 1110.6,49.8 C1108.7,49 1106.5,48.6 1103.9,48.4 C1102.6,48.3 1101.6,48.3 1100.7,48.2 C1099.8,48.1 1099,48.1 1098.1,48.1 C1097.3,48.1 1096.5,48.1 1095.5,48.1 C1094.6,48.1 1093.5,48.1 1092.2,48.1 C1092,49.3 1092,51 1092,53.3 C1092,55.6 1092,58 1092,60.4 C1092,61.5 1092,62.8 1092,64.3 C1092,65.7 1092,67.2 1092,68.6 C1092,70 1092,71.3 1092.1,72.5 C1092.1,73.7 1092.2,74.8 1092.2,75.6 C1092.3,78.3 1092.4,80.9 1092.6,83.3 C1092.8,85.7 1093.3,87.5 1094.1,88.7 C1094.9,89.9 1096.7,90.7 1099.6,91.3 C1102.5,91.8 1105.7,92.1 1109.1,92.1 C1110.6,92.1 1112.4,92.1 1114.7,92 C1117,91.9 1119.3,91.7 1121.8,91.4 C1124.5,91.1 1127,90.4 1129.3,89.4 C1131.6,88.4 1133.8,87 1135.9,85.3 C1138,83.5 1140.1,81.3 1142.1,78.7 C1144.1,76.1 1146.2,73 1148.3,69.3 L1149.7,69.7 L1143,94.1 Z" id="XMLID_108_"></path></g></g></g></svg>