<svg xmlns="http://www.w3.org/2000/svg" id="Layer_1" data-name="Layer 1" viewBox="0 0 219.93 299.22"><defs><style>.cls-1{fill:#587a69;}.cls-2{fill:#97bbbb;}</style></defs><circle class="cls-1" cx="98.18" cy="272.95" r="14.75"></circle><path class="cls-2" d="M123.29,197.06c-.33.28-.66.58-1,.89L79.52,155.16c.32-.31.62-.63.92-.95l.91.91.9.9,38.36,38.36.87.87.89.89Z"></path><path class="cls-1" d="M121.47,198.76c-.31.31-.61.63-.91,1l-.91-.91-.9-.89-.87-.87-37.49-37.5-.87-.86-.9-.9-.91-.92c.33-.28.66-.58,1-.88l.91.91.89.9.87.86,37.43,37.44.87.86.89.9Z"></path><path class="cls-1" d="M156.71,41.87c-.32-.3-.65-.59-1-.88s-.6-.51-.91-.75-.68-.56-1-.83a37.28,37.28,0,0,0-46.14.93c-.34.27-.68.56-1,.86s-.58.51-.86.79-.64.6-1,.92a37.26,37.26,0,0,0-3.24,48.71c.27.36.54.71.83,1s.49.6.75.9.58.66.89,1a37.31,37.31,0,0,0,43,8.34q.66-.31,1.32-.66c.39-.2.79-.41,1.17-.64s.89-.5,1.32-.77a37.22,37.22,0,0,0,6.62-5.22c.31-.31.62-.62.92-.94s.53-.57.78-.87.59-.67.87-1a37.26,37.26,0,0,0-3.39-50.91Zm2.52,50c-.28.35-.57.69-.86,1s-.52.58-.79.86-.6.64-.92.94a36.17,36.17,0,0,1-5.75,4.64q-.65.42-1.32.81c-.38.23-.77.46-1.17.67s-.87.46-1.32.68a36,36,0,0,1-42.17-7.85c-.31-.32-.6-.65-.89-1s-.51-.59-.75-.9-.56-.69-.83-1a36.05,36.05,0,0,1,3.23-47c.31-.31.62-.62,1-.92s.57-.53.86-.79l1-.86a36.07,36.07,0,0,1,44.4-.92c.36.26.71.53,1.05.82s.61.5.91.75.65.58,1,.89a36,36,0,0,1,3.39,49.17Z"></path><path class="cls-2" d="M153.06,42l-.92.92c.31.24.61.49.91.75l.92-.92ZM131.3,102.61a33.36,33.36,0,0,1-24.57-10.74q-.45-.48-.87-1t-.75-.9l-.92.92q.36.46.75.9c.28.33.58.66.88,1a34.81,34.81,0,0,0,41.28,7.34V98.66A33.34,33.34,0,0,1,131.3,102.61ZM108.4,43c-.29.25-.58.51-.86.79l.91.91q.43-.4.87-.78Zm44.66-1-.92.92c.31.24.61.49.91.75l.92-.92ZM131.3,102.61a33.36,33.36,0,0,1-24.57-10.74q-.45-.48-.87-1t-.75-.9l-.92.92q.36.46.75.9c.28.33.58.66.88,1a34.81,34.81,0,0,0,41.28,7.34V98.66A33.34,33.34,0,0,1,131.3,102.61ZM108.4,43c-.29.25-.58.51-.86.79l.91.91q.43-.4.87-.78Zm44.66-1-.92.92c.31.24.61.49.91.75l.92-.92ZM131.3,102.61a33.36,33.36,0,0,1-24.57-10.74q-.45-.48-.87-1t-.75-.9l-.92.92q.36.46.75.9c.28.33.58.66.88,1a34.81,34.81,0,0,0,41.28,7.34V98.66A33.34,33.34,0,0,1,131.3,102.61ZM108.4,43c-.29.25-.58.51-.86.79l.91.91q.43-.4.87-.78Zm44.66-1-.92.92c.31.24.61.49.91.75l.92-.92ZM106.73,91.87q-.45-.48-.87-1t-.75-.9l-.92.92q.36.46.75.9c.28.33.58.66.88,1a34.81,34.81,0,0,0,41.28,7.34V98.66a33.51,33.51,0,0,1-40.37-6.79Zm2.59-48L108.4,43c-.29.25-.58.51-.86.79l.91.91Q108.89,44.26,109.32,43.88Zm45.62-.24c-.31-.31-.64-.6-1-.89l-.91-.75q-.51-.42-1.05-.81a34.78,34.78,0,0,0-42.6.91l-1,.86c-.29.25-.58.51-.86.79s-.64.6-1,.92a34.77,34.77,0,0,0-3.22,45.17c.27.36.54.71.82,1.06s.49.61.75.9.58.66.88,1a34.81,34.81,0,0,0,41.28,7.34c.44-.23.89-.47,1.32-.72s.78-.45,1.17-.69.88-.56,1.32-.86a34,34,0,0,0,4.85-4c.32-.3.62-.61.92-.94s.53-.57.79-.86.57-.67.86-1a34.75,34.75,0,0,0-3.39-47.37Zm2.47,46.45c-.28.35-.56.69-.86,1s-.51.58-.78.87-.6.64-.92,1a33.12,33.12,0,0,1-3.94,3.34q-.65.47-1.32.9c-.38.26-.77.5-1.17.74s-.87.51-1.32.75a33.51,33.51,0,0,1-40.37-6.79q-.45-.48-.87-1t-.75-.9c-.28-.35-.55-.7-.82-1.06a33.49,33.49,0,0,1,3.21-43.34l1-.92q.43-.4.87-.78c.33-.3.67-.58,1-.86a33.49,33.49,0,0,1,40.76-.91q.53.39,1,.81c.31.24.61.49.91.75s.66.57,1,.87a33.48,33.48,0,0,1,3.37,45.55ZM108.4,43c-.29.25-.58.51-.86.79l.91.91q.43-.4.87-.78Zm22.9,59.65a33.36,33.36,0,0,1-24.57-10.74q-.45-.48-.87-1t-.75-.9l-.92.92q.36.46.75.9c.28.33.58.66.88,1a34.81,34.81,0,0,0,41.28,7.34V98.66A33.34,33.34,0,0,1,131.3,102.61ZM153.06,42l-.92.92c.31.24.61.49.91.75l.92-.92ZM108.4,43c-.29.25-.58.51-.86.79l.91.91q.43-.4.87-.78Zm22.9,59.65a33.36,33.36,0,0,1-24.57-10.74q-.45-.48-.87-1t-.75-.9l-.92.92q.36.46.75.9c.28.33.58.66.88,1a34.81,34.81,0,0,0,41.28,7.34V98.66A33.34,33.34,0,0,1,131.3,102.61ZM153.06,42l-.92.92c.31.24.61.49.91.75l.92-.92ZM108.4,43c-.29.25-.58.51-.86.79l.91.91q.43-.4.87-.78Zm22.9,59.65a33.36,33.36,0,0,1-24.57-10.74q-.45-.48-.87-1t-.75-.9l-.92.92q.36.46.75.9c.28.33.58.66.88,1a34.81,34.81,0,0,0,41.28,7.34V98.66A33.34,33.34,0,0,1,131.3,102.61ZM153.06,42l-.92.92c.31.24.61.49.91.75l.92-.92Z"></path><path class="cls-1" d="M87.14,111.46q-.36-.55-.75-1.11t-.69-1c-.26-.36-.54-.71-.82-1.06a37.17,37.17,0,0,0-29.12-14c-.48,0-.95,0-1.42,0s-.88,0-1.32.07l-1.17.1c-.44,0-.88.1-1.32.17a37.27,37.27,0,0,0-18,66l1.05.81,1,.69,1.12.75a37.09,37.09,0,0,0,14.66,5.48c.44.07.88.13,1.32.17s.78.08,1.17.11.88.07,1.32.08,1.09,0,1.64,0a37.12,37.12,0,0,0,24.63-9.3c.33-.28.65-.58,1-.89s.57-.53.84-.81.61-.63.92-1a37.29,37.29,0,0,0,4-45.43ZM82.25,156c-.3.32-.6.64-.92.95s-.55.56-.84.82-.64.6-1,.89a35.88,35.88,0,0,1-23.76,8.94c-.55,0-1.1,0-1.64,0s-.89,0-1.32-.08-.78-.07-1.17-.12-.88-.1-1.32-.16a35.88,35.88,0,0,1-13.77-5.15l-1.13-.74-1-.69c-.36-.26-.7-.53-1-.81A36,36,0,0,1,50.53,95.92c.44-.07.88-.12,1.32-.16s.78-.09,1.17-.12.88-.06,1.32-.07.94,0,1.42,0A36,36,0,0,1,84,109.2c.28.35.55.7.81,1.06l.69,1c.25.37.49.75.73,1.13a36,36,0,0,1-4,43.67Z"></path><path class="cls-2" d="M85.34,113.27l-.94.94a33.49,33.49,0,0,1-4,40c-.3.32-.6.64-.92.95s-.54.56-.83.82l.91.91.84-.81c.31-.31.62-.63.91-1a34.78,34.78,0,0,0,4-41.85ZM51.85,97v1.3q.59-.07,1.17-.12V96.91C52.62,96.94,52.23,97,51.85,97Zm-.22,67.79v1.29q.59.08,1.17.12v-1.29Q52.22,164.89,51.63,164.81Zm33.71-51.54-.94.94a33.49,33.49,0,0,1-4,40c-.3.32-.6.64-.92.95s-.54.56-.83.82l.91.91.84-.81c.31-.31.62-.63.91-1a34.78,34.78,0,0,0,4-41.85ZM51.85,97v1.3q.59-.07,1.17-.12V96.91C52.62,96.94,52.23,97,51.85,97Zm-.22,67.79v1.29q.59.08,1.17.12v-1.29Q52.22,164.89,51.63,164.81Zm33.71-51.54-.94.94a33.49,33.49,0,0,1-4,40c-.3.32-.6.64-.92.95s-.54.56-.83.82l.91.91.84-.81c.31-.31.62-.63.91-1a34.78,34.78,0,0,0,4-41.85ZM51.85,97v1.3q.59-.07,1.17-.12V96.91C52.62,96.94,52.23,97,51.85,97Zm-.22,67.79v1.29q.59.08,1.17.12v-1.29Q52.22,164.89,51.63,164.81Zm33.71-51.54-.94.94a33.49,33.49,0,0,1-4,40c-.3.32-.6.64-.92.95s-.54.56-.83.82l.91.91.84-.81c.31-.31.62-.63.91-1a34.78,34.78,0,0,0,4-41.85ZM51.85,97v1.3q.59-.07,1.17-.12V96.91C52.62,96.94,52.23,97,51.85,97Zm-.22,67.79v1.29q.59.08,1.17.12v-1.29Q52.22,164.89,51.63,164.81Zm33.71-51.54-.94.94a33.49,33.49,0,0,1-4,40c-.3.32-.6.64-.92.95s-.54.56-.83.82l.91.91.84-.81c.31-.31.62-.63.91-1a34.78,34.78,0,0,0,4-41.85ZM51.85,97v1.3q.59-.07,1.17-.12V96.91C52.62,96.94,52.23,97,51.85,97Zm-.22,67.79v1.29q.59.08,1.17.12v-1.29Q52.22,164.89,51.63,164.81Zm33.71-51.54-.94.94a33.49,33.49,0,0,1-4,40c-.3.32-.6.64-.92.95s-.54.56-.83.82l.91.91.84-.81c.31-.31.62-.63.91-1a34.78,34.78,0,0,0,4-41.85Zm-33.49-15q.59-.07,1.17-.12V96.91c-.4,0-.79.06-1.17.11Zm-.22,67.78q.59.08,1.17.12v-1.29q-.59,0-1.17-.12Zm33.71-52.83c-.24-.38-.48-.75-.74-1.13s-.44-.65-.68-1-.53-.72-.81-1.07A34.69,34.69,0,0,0,55.76,96.8c-.48,0-.95,0-1.42,0s-.89,0-1.32.08-.79.06-1.17.11l-1.32.17a34.8,34.8,0,0,0-16.25,61.75l1.07.79c.32.24.65.47,1,.68s.75.51,1.13.74a34.41,34.41,0,0,0,12.85,4.77c.43.07.88.13,1.32.18s.78.09,1.17.12l1.32.09c.54,0,1.09,0,1.64,0a34.6,34.6,0,0,0,22.86-8.57c.33-.29.66-.58,1-.89l.84-.81c.31-.31.62-.63.91-1a34.78,34.78,0,0,0,4-41.85Zm-4.9,40.94c-.3.32-.6.64-.92.95s-.54.56-.83.82-.65.6-1,.88a33.34,33.34,0,0,1-21.95,8.2c-.55,0-1.1,0-1.64,0s-.88-.05-1.32-.09-.78-.07-1.17-.12l-1.32-.19a33.32,33.32,0,0,1-11.91-4.41c-.38-.23-.76-.48-1.14-.73s-.66-.44-1-.68-.72-.52-1.07-.79A33.49,33.49,0,0,1,50.53,98.5l1.32-.18q.59-.07,1.17-.12l1.32-.08c.47,0,.94,0,1.42,0A33.43,33.43,0,0,1,82.2,111c.27.35.54.71.8,1.07s.45.65.67,1,.49.76.73,1.14a33.49,33.49,0,0,1-4,40Zm-28.81,10.6v1.29q.59.08,1.17.12v-1.29Q52.22,164.89,51.63,164.81ZM51.85,97v1.3q.59-.07,1.17-.12V96.91C52.62,96.94,52.23,97,51.85,97Zm33.49,16.25-.94.94a33.49,33.49,0,0,1-4,40c-.3.32-.6.64-.92.95s-.54.56-.83.82l.91.91.84-.81c.31-.31.62-.63.91-1a34.78,34.78,0,0,0,4-41.85ZM51.63,164.81v1.29q.59.08,1.17.12v-1.29Q52.22,164.89,51.63,164.81ZM51.85,97v1.3q.59-.07,1.17-.12V96.91C52.62,96.94,52.23,97,51.85,97Zm33.49,16.25-.94.94a33.49,33.49,0,0,1-4,40c-.3.32-.6.64-.92.95s-.54.56-.83.82l.91.91.84-.81c.31-.31.62-.63.91-1a34.78,34.78,0,0,0,4-41.85ZM51.63,164.81v1.29q.59.08,1.17.12v-1.29Q52.22,164.89,51.63,164.81ZM51.85,97v1.3q.59-.07,1.17-.12V96.91C52.62,96.94,52.23,97,51.85,97Zm33.49,16.25-.94.94a33.49,33.49,0,0,1-4,40c-.3.32-.6.64-.92.95s-.54.56-.83.82l.91.91.84-.81c.31-.31.62-.63.91-1a34.78,34.78,0,0,0,4-41.85ZM51.63,164.81v1.29q.59.08,1.17.12v-1.29Q52.22,164.89,51.63,164.81ZM51.85,97v1.3q.59-.07,1.17-.12V96.91C52.62,96.94,52.23,97,51.85,97Zm33.49,16.25-.94.94a33.49,33.49,0,0,1-4,40c-.3.32-.6.64-.92.95s-.54.56-.83.82l.91.91.84-.81c.31-.31.62-.63.91-1a34.78,34.78,0,0,0,4-41.85ZM51.63,164.81v1.29q.59.08,1.17.12v-1.29Q52.22,164.89,51.63,164.81ZM51.85,97v1.3q.59-.07,1.17-.12V96.91C52.62,96.94,52.23,97,51.85,97Zm33.49,16.25-.94.94a33.49,33.49,0,0,1-4,40c-.3.32-.6.64-.92.95s-.54.56-.83.82l.91.91.84-.81c.31-.31.62-.63.91-1a34.78,34.78,0,0,0,4-41.85Z"></path><path class="cls-1" d="M174.71,199.57c-.27-.35-.55-.69-.84-1s-.5-.6-.76-.9-.59-.65-.89-1a37.25,37.25,0,0,0-21.31-11.14c-.44-.07-.88-.13-1.32-.17s-.78-.09-1.17-.12-.88-.07-1.32-.09c-.62,0-1.25-.05-1.88-.05a37.1,37.1,0,0,0-24.61,9.28l-1,.89-.84.82c-.31.31-.61.63-.91.95A37.17,37.17,0,0,0,108,221.4c0,.32,0,.64,0,1v.36l0,1.17c0,.44,0,.88.08,1.32a37.1,37.1,0,0,0,11.5,24.18c.32.31.65.61,1,.9s.59.51.89.76.68.56,1,.83a37.27,37.27,0,0,0,52.24-52.31ZM145.22,258.4a35.81,35.81,0,0,1-21.87-7.4c-.35-.27-.7-.54-1-.82l-.89-.77c-.33-.29-.66-.58-1-.89a35.92,35.92,0,0,1-11.15-23.31c0-.43-.06-.87-.07-1.32s0-.78,0-1.17v-.36c0-.32,0-.64,0-1a35.85,35.85,0,0,1,9.56-23.49c.29-.33.6-.65.91-1s.55-.55.84-.81.65-.61,1-.89a35.89,35.89,0,0,1,23.74-8.93c.63,0,1.26,0,1.88.05q.68,0,1.32.09c.4,0,.78.08,1.17.13l1.32.17a35.93,35.93,0,0,1,20.44,10.78c.31.32.61.64.9,1s.51.59.76.89.56.69.83,1a36,36,0,0,1-28.62,58Z"></path><path class="cls-2" d="M148.42,187.73c-.44,0-.88-.08-1.32-.09-.62,0-1.25-.06-1.88-.06a34.68,34.68,0,0,0-22.85,8.56c-.33.29-.65.59-1,.9s-.57.53-.85.81l.92.91q.41-.42.84-.81c.32-.31.65-.61,1-.89a33.35,33.35,0,0,1,21.93-8.19c.63,0,1.26,0,1.88,0l1.32.1,1.17.13v-1.3Zm-26.11,60.79.9.76.92-.92-.9-.76Zm-11.86-25.8c0,.39,0,.78,0,1.17h1.28l0-1.17Zm62.48-21.37c-.26-.36-.54-.71-.82-1s-.5-.6-.76-.89-.59-.66-.9-1A34.62,34.62,0,0,0,150.91,188l-1.32-.19-1.17-.12c-.44,0-.88-.08-1.32-.09-.62,0-1.25-.06-1.88-.06a34.68,34.68,0,0,0-22.85,8.56c-.33.29-.65.59-1,.9s-.57.53-.85.81-.61.62-.9,1a34.63,34.63,0,0,0-9.19,22.6c0,.32,0,.64,0,1v.36c0,.39,0,.78,0,1.17s0,.88.08,1.32a34.65,34.65,0,0,0,10.77,22.42c.32.31.64.6,1,.89l.9.76c.34.28.69.55,1,.82a34.77,34.77,0,0,0,48.68-48.75Zm-27.71,54.49a33.37,33.37,0,0,1-20-6.66l-1-.82-.9-.76c-.33-.29-.66-.58-1-.89a33.37,33.37,0,0,1-10.39-21.5c0-.44-.07-.87-.09-1.32l0-1.17v-.36c0-.32,0-.64,0-1a33.41,33.41,0,0,1,8.81-21.69c.3-.32.6-.64.91-1s.55-.55.84-.81.65-.61,1-.89a33.35,33.35,0,0,1,21.93-8.19c.63,0,1.26,0,1.88,0l1.32.1,1.17.13,1.32.2a33.46,33.46,0,0,1,18.64,10c.3.32.6.65.89,1s.51.6.75.9.55.69.83,1a33.5,33.5,0,0,1-26.8,53.58Zm-33.48-33.12h-1.29c0,.39,0,.78,0,1.17h1.28Zm11.49,24.88-.92.92.9.76.92-.92Zm25.19-59.87c-.44,0-.88-.08-1.32-.09-.62,0-1.25-.06-1.88-.06a34.68,34.68,0,0,0-22.85,8.56c-.33.29-.65.59-1,.9s-.57.53-.85.81l.92.91q.41-.42.84-.81c.32-.31.65-.61,1-.89a33.35,33.35,0,0,1,21.93-8.19c.63,0,1.26,0,1.88,0l1.32.1,1.17.13v-1.3Z"></path><path class="cls-2" d="M106.73,91.87l-.91.91-.89.9-.87.87L87.14,111.46l-.89.89-.91.92-.94.94c-.24-.38-.48-.77-.73-1.14l.93-.93.92-.92.87-.87,16.78-16.78.87-.87.9-.9.92-.92Q106.28,91.39,106.73,91.87Z"></path><polygon class="cls-2" points="131.2 67.4 131.2 67.41 131.19 67.4 131.2 67.4"></polygon><polygon class="cls-2" points="132.96 65.64 132.96 65.65 132.95 65.64 132.96 65.64"></polygon><path class="cls-1" d="M105.11,90,83,112.09c-.26-.36-.53-.72-.8-1.07l.91-.92.91-.9.86-.87,16.71-16.71.87-.87.91-.91.92-.92C104.56,89.28,104.83,89.63,105.11,90Z"></path><path class="cls-2" d="M148.42,97.91V189l-1.32-.1V98.66Q147.78,98.3,148.42,97.91Z"></path><path class="cls-1" d="M150.91,96.27v93.08l-1.32-.2v-92Q150.26,96.73,150.91,96.27Z"></path><path class="cls-2" d="M123.23,247.6l-1.81,1.81-.87.88-14.22,14.22-.94-.94,1.28-1.28.79-.79,12.11-12.11.87-.87.9-.89.91-.92C122.57,247,122.9,247.31,123.23,247.6Z"></path><path class="cls-1" d="M125.17,249.18,123.35,251l-.88.88-12.38,12.38-1.16,1.16-.29.3-.26.25-.29.3-.93-.94.29-.29.55-.55.47-.47.79-.79,14.87-14.87Z"></path><circle class="cls-2" cx="98.18" cy="272.95" r="13.63"></circle><circle class="cls-1" cx="78.25" cy="222.93" r="14.75"></circle><path class="cls-2" d="M111.75,221.4c0,.32,0,.64,0,1v.36H90V221.4Z"></path><path class="cls-1" d="M111.86,225.21H90v-1.32h21.79C111.79,224.34,111.82,224.77,111.86,225.21Z"></path><circle class="cls-2" cx="78.25" cy="222.93" r="13.63"></circle><circle class="cls-1" cx="51.85" cy="192.44" r="14.75"></circle><path class="cls-2" d="M51.63,164.81v15.9H50.31V164.62Z"></path><path class="cls-1" d="M54.12,165v15.69H52.8V164.93C53.24,165,53.67,165,54.12,165Z"></path><circle class="cls-2" cx="51.85" cy="192.44" r="13.63"></circle><circle class="cls-1" cx="52.8" cy="54.38" r="14.75"></circle><path class="cls-2" d="M54.34,66.11v32L53,98.2V66.11Z"></path><path class="cls-1" d="M51.85,66.11V98.32l-1.32.18V66.11Z"></path><circle class="cls-2" cx="52.8" cy="54.38" r="13.63"></circle><circle class="cls-1" cx="83.51" cy="18.37" r="14.75"></circle><path class="cls-2" d="M110.33,43c-.34.28-.68.56-1,.86L108.4,43l-.9-.9-.86-.86L94.09,28.65l-.79-.79L92,26.52l.94-.93,1.27,1.27.8.8,12.68,12.68.86.86.9.9Z"></path><polygon class="cls-2" points="131.09 65.64 131.09 65.65 131.08 65.64 131.09 65.64"></polygon><path class="cls-1" d="M108.45,44.66l-1,.92L92.21,30.29l-.8-.8-.36-.36-.85-.85.93-.93.3.29.25.26.3.29.47.47,14.19,14.19.9.9Z"></path><circle class="cls-2" cx="83.51" cy="18.37" r="13.63"></circle><circle class="cls-1" cx="175.08" cy="21.33" r="14.75"></circle><polygon class="cls-2" points="131.09 65.64 131.09 65.65 131.08 65.64 131.09 65.64"></polygon><path class="cls-2" d="M167.87,30.71,166.59,32l-.79.79-9.09,9.09-.87.87-.9.9-.9.9q-.49-.45-1-.87l13.89-13.89Z"></path><path class="cls-1" d="M166.11,29l-.3.3-.55.55-.47.47-.79.79L152.14,42.92q-.52-.42-1-.81l.92-.92.9-.91.88-.87L164,29.23l.36-.36.29-.3.26-.25.29-.3Z"></path><circle class="cls-2" cx="175.08" cy="21.33" r="13.63"></circle><circle class="cls-1" cx="179.71" cy="115.61" r="14.75"></circle><polygon class="cls-2" points="131.2 67.4 131.2 67.41 131.19 67.4 131.2 67.4"></polygon><path class="cls-2" d="M171.26,107.47l-.93.93-1.28-1.28-.79-.79L157.53,95.6l-.87-.87-.9-.9-.91-.9c.32-.31.63-.63.92-1Z"></path><polygon class="cls-1" points="132.96 65.64 132.96 65.65 132.95 65.64 132.96 65.64"></polygon><path class="cls-1" d="M173,105.71l-.93.93-.3-.29-.25-.26-.3-.29-.47-.47-.79-.79L156.55,91.11c.3-.33.58-.67.86-1l.92.92.9.9.87.87L171,103.7l.8.8.36.36.29.3.26.25Z"></path><circle class="cls-2" cx="179.71" cy="115.61" r="13.63"></circle><circle class="cls-1" cx="195.06" cy="177.04" r="14.75"></circle><path class="cls-2" d="M187.85,186.43l-1.28,1.28-.79.79-11.07,11.07-.87.87-.91.91-.91.91c-.28-.35-.55-.7-.83-1l15.72-15.72Z"></path><path class="cls-1" d="M186.09,184.67l-.3.3-.55.55-.47.47-.79.79-10.87,10.86-.86.87-1.81,1.81c-.29-.33-.59-.66-.89-1l.9-.9.9-.9.87-.87,10.93-10.93.79-.79.92-.92.29-.29Z"></path><circle class="cls-2" cx="195.06" cy="177.04" r="13.63"></circle><circle class="cls-1" cx="189.49" cy="273.11" r="14.75"></circle><path class="cls-2" d="M180.11,265.9l-1.28-1.28-.79-.79L167,252.76l-.87-.87-.91-.91-.91-.91,1-.83L181,265Z"></path><path class="cls-1" d="M181.87,264.14l-.3-.3-.55-.55-.47-.47-.79-.79L168.9,251.16l-.87-.86-1.81-1.81,1-.89.9.9.9.9.87.87L180.8,261.2l.79.79.92.92.29.29Z"></path><circle class="cls-2" cx="189.49" cy="273.11" r="13.63"></circle></svg>