<svg xmlns="http://www.w3.org/2000/svg" id="Layer_1" data-name="Layer 1" viewBox="0 0 1860 600"><defs><style>.cls-1{fill:#e1e670;}.cls-1,.cls-10,.cls-11,.cls-12,.cls-13,.cls-14,.cls-15,.cls-16,.cls-17,.cls-18,.cls-19,.cls-2,.cls-20,.cls-21,.cls-22,.cls-23,.cls-24,.cls-25,.cls-26,.cls-27,.cls-28,.cls-29,.cls-30,.cls-31,.cls-32,.cls-33,.cls-34,.cls-35,.cls-36,.cls-37,.cls-38,.cls-39,.cls-4,.cls-40,.cls-41,.cls-42,.cls-43,.cls-44,.cls-45,.cls-46,.cls-47,.cls-48,.cls-49,.cls-5,.cls-50,.cls-51,.cls-52,.cls-53,.cls-54,.cls-55,.cls-56,.cls-57,.cls-58,.cls-59,.cls-6,.cls-60,.cls-61,.cls-62,.cls-63,.cls-64,.cls-65,.cls-66,.cls-67,.cls-68,.cls-69,.cls-7,.cls-70,.cls-71,.cls-72,.cls-73,.cls-74,.cls-8,.cls-9{fill-rule:evenodd;}.cls-2{fill:#dae140;}.cls-3,.cls-74{fill:#fff;}.cls-4{fill:#662f90;}.cls-5{fill:#dce24a;}.cls-6{fill:#97bbbb;}.cls-7{fill:#fafafa;}.cls-8{fill:#b5cdcd;}.cls-9{fill:#6c8778;}.cls-10{fill:#587a69;}.cls-11{fill:#d9e4e4;}.cls-12{fill:#cadada;}.cls-13{fill:#6d8879;}.cls-14{fill:#7a509e;}.cls-15{fill:#5b7c6b;}.cls-16{fill:#794e9d;}.cls-17{fill:#aec8c8;}.cls-18{fill:#9fbfc0;}.cls-19{fill:#cfdddd;}.cls-20{fill:#1c1c1c;}.cls-21{fill:#cddcdc;}.cls-22{fill:#c5d7d7;}.cls-23{fill:#adc7c8;}.cls-24{fill:#5e7e6d;}.cls-25{fill:#a2c1c1;}.cls-26{fill:#99bcbc;}.cls-27{fill:#abc6c7;}.cls-28{fill:#628170;}.cls-29{fill:#724398;}.cls-30{fill:#7b529f;}.cls-31{fill:#111;}.cls-32{fill:#6f3e96;}.cls-33{fill:#6b3793;}.cls-34{fill:#181818;}.cls-35{fill:#222121;}.cls-37{fill:#20201f;}.cls-38{fill:#704097;}.cls-39{fill:#708a7b;}.cls-40{fill:#9cbebe;}.cls-41{fill:#658272;}.cls-42{fill:#141313;}.cls-43{fill:#7e55a1;}.cls-44{fill:#161615;}.cls-45{fill:#0f0f0e;}.cls-46{fill:#76499b;}.cls-47{fill:#9ebfbf;}.cls-48{fill:#bbd0d1;}.cls-49{fill:#fbf4f2;}.cls-50{fill:#c0d4d4;}.cls-51{fill:#c2d5d5;}.cls-52{fill:#bed2d2;}.cls-53{fill:#577a69;}.cls-54{fill:#b8cfcf;}.cls-55{fill:#c3d5d5;}.cls-56{fill:#242323;}.cls-57{fill:#aac6c6;}.cls-58{fill:#b3cccc;}.cls-59{fill:#c8d8d9;}.cls-60{fill:#d4e0e0;}.cls-61{fill:#b4cccc;}.cls-62{fill:#718b7c;}.cls-63{fill:#b1cacb;}.cls-64{fill:#a7c4c4;}.cls-65{fill:#e2eaea;}.cls-66{fill:#a6c3c4;}.cls-67{fill:#a5c3c3;}.cls-68{fill:#a1c1c1;}.cls-69{fill:#5f7f6e;}.cls-70{fill:#dee7e7;}.cls-71{fill:#688474;}.cls-72{fill:#a8c4c5;}.cls-73{fill:#d7df27;}</style></defs><polygon class="cls-1" points="408.48 351.39 408.25 351.47 407.2 351.82 405.19 348.61 406.2 348.22 406.43 348.13 408.48 351.39"></polygon><path class="cls-2" d="M814.63,265,802,272.35c-49.64,5.7-96.76,11.27-140.12,16.69Z"></path><path class="cls-3" d="M316.56,442.24l-.11-.81-1.12.15-.08-.31-.1,0,.08.3-1,.14.29,2.08,1.34-.35-.29-1.09Zm0,0-.11-.81-1.12.15-.08-.31-.1,0,.08.3-1,.14.29,2.08,1.34-.35-.29-1.09Zm0,0-.11-.81-1.12.15-.08-.31-.1,0,.08.3-1,.14.29,2.08,1.34-.35-.29-1.09Zm0,0-.11-.81-1.12.15-.08-.31-.1,0,.08.3-1,.14.29,2.08,1.34-.35-.29-1.09Zm117,152.12s0,0,0-.05l-25.39-80.17h0l-.7-2.21-.81-2.55-.89-2.81-9.82-43.2-1.65-7.25-1-4.23,27.52-66.72-1.91-12.06-.07-.4-1-6.44-9.32-14.87-2.05-3.26-6.81-10.87-5.69-9.08-4-6.36-5.49-8.76-12-2.14-14.81-8.67-17,3.53L335.9,314l-.11,3.35-4.24-5.59-11.26-.45-12,6.16.52,1-1-.51-1.18,2.32-.22.43v0l-3.81,7.53,2.76,8.89-10,4.7L287,345.4l-2.92,13,1.71,4.55-10.91,8.69-2.68,10.24,1.48,5.91-1.25,9,3.9,13,6.18,20.62.05.15,1.82,2.85.3.47.51.81h0l7.39,11.58,6.53,10.24.26.4h0l.22.36,0,0,10.85,17,2.41,13.38h0l20.25,112.5H435.37ZM296.08,343.44l.22.46,1.28-.6,3.07-1.44,5-2.35h0l1.18-.56h0l1.26-.6L305,328.46l4.35-8.6.29-.57,11.12-5.73,4.2.17,5.4.22,4.67,6.17,2.66,3.51.12.16.11-3.39.2-5.78.58-1,.36-.61,3-5.22,15.14-3.14.63.37,13.77,8.06,1.39.25.69.12,9.16,1.64.15,0,.53.85,4,6.4.86,1.36v0l22.87,36.47v0l1,1.6a.08.08,0,0,0,0,0l3.25,5.19.17,1s0,0,0,0l.12.75,2.55,16-1.08,2.62-.58,1.4L398,434.62h0l-7,17.05.23,1,.61,2.69,1.6,7,10.16,44.7v0l.14.45.79,2.48.69,2.17,12.38,39.11,14.75,46.57H335.05L315.58,489.77h0l-2.8-15.55-.09-.52,0-.22-.6-.93-6.8-10.67v0l-.3-.47h0l-.2-.31-10.21-16-.43-.68-8.74-13.7-.69-1.08-.42-1.4-.2-.63v0l-.09-.32-6.4-21.31h0l-2.79-9.3.06-.43.28-2,.67-4.78.24-1.72-.78-3.11-.67-2.66.42-1.6L276.9,373l10.74-8.55.87-.7-.05-.13h0l-2-5.33L289,347l7.13-3,.16-.07-.2-.47-.24-.57Zm18.41,100.38,1.34-.35-.29-1.09,1-.14-.11-.81-1.12.15-.08-.31-.1,0,.08.3-1,.14Zm2.07-1.58-.11-.81-1.12.15-.08-.31-.1,0,.08.3-1,.14.29,2.08,1.34-.35-.29-1.09Zm0,0-.11-.81-1.12.15-.08-.31-.1,0,.08.3-1,.14.29,2.08,1.34-.35-.29-1.09Z"></path><path class="cls-4" d="M1852.7,1V116.34c-5.83,49.06-622.12,106.89-1050.75,156-49.64,5.7-96.76,11.27-140.12,16.69-143.6,18-246,34.39-262.21,48.22l-.18.16,6.77,10.8,2,3.25.76,1.22c.23,1.12.51,2.23.85,3.35h0l.12.2a59,59,0,0,0,2.39,5.61v0c0,.09.08.19.13.28-.19-.17-.38-.36-.57-.55-10.13-9.88-17.29-20.07-21.13-30.53l-2.34-7.33v0c.19-.28.39-.56.61-.84s.56-.71.87-1.07C468.43,232.73,1844.2,161.12,1852.7,1Z"></path><path class="cls-5" d="M1852.7,33.46v82.88c-5.83,49.06-622.12,106.89-1050.75,156-49.64,5.7-96.76,11.27-140.12,16.69-143.6,18-246,34.39-262.21,48.22l-.18.16,6.77,10.8,2,3.25.76,1.22c.23,1.12.51,2.23.85,3.35l-2.65-4.22-2-3.21L393.09,329.3c.26-.37.53-.75.84-1.12C465,238.94,1844.18,194,1852.7,33.46Z"></path><polygon class="cls-6" points="297.55 436.63 303.02 421.02 295.13 425.96 294.32 422.94 291.92 413.99 286.5 410.24 282.95 399.81 273.98 395.81 273.77 397.3 283.79 430.68 294.63 430.68 296.17 433.34 293.73 446.27 311.74 474.49 316.17 446.9 319.77 424.42 308.61 439.44 307.65 435.88 301.71 441.82 299.53 444 297.55 436.63"></polygon><polygon class="cls-7" points="353.26 392.51 339.96 412.06 344.58 429.33 381.62 395.8 381.84 391.37 371.88 383.9 373.22 383.12 382.05 387.26 383.19 364.86 371.84 369.6 372.08 377.43 378.87 382.75 377.61 384.21 370.73 377.75 370.12 370.59 365.92 373.94 363.11 376.18 361.44 378.95 358.29 384.18 353.26 392.51"></polygon><polygon class="cls-7" points="298.75 356.67 295.99 343.48 288.17 346.81 285.45 358.92 301.26 383.38 294.06 359.28 298.75 356.67"></polygon><polygon class="cls-7" points="282.1 378.07 279.4 373.42 273.56 382.49 298.59 413.69 301.18 414.44 283.11 388.7 282.1 378.07"></polygon><polygon class="cls-7" points="303.81 329.5 306.73 338.89 314.61 343.11 319.09 340.61 309 319.05 306.52 320.32 303.81 329.5"></polygon><polygon class="cls-7" points="338.22 313.14 359.25 310.06 357.64 304.05 341.57 307.39 338.22 313.14"></polygon><polygon class="cls-6" points="280.65 396.36 275.02 388.33 274.25 393.84 280.65 396.36"></polygon><polygon class="cls-8" points="275.02 388.33 280.65 396.36 274.25 393.84 273.98 395.81 282.95 399.81 286.5 410.24 298.59 413.69 273.56 382.49 275.02 388.33"></polygon><polygon class="cls-6" points="279.4 373.42 290.79 369.49 287.33 363.92 276.06 372.89 273.56 382.49 279.4 373.42"></polygon><polygon class="cls-9" points="305.29 405.4 315.36 400.57 310.53 396.08 302.43 400.76 305.29 405.4"></polygon><polygon class="cls-10" points="302.43 400.76 310.53 396.08 302.98 389.06 293.51 373.85 282.1 378.07 299.51 408.18 305.29 405.4 302.43 400.76"></polygon><polygon class="cls-11" points="282.1 378.07 293.51 373.85 290.79 369.49 279.4 373.42 282.1 378.07"></polygon><polygon class="cls-12" points="299.51 408.18 282.1 378.07 283.11 388.7 301.18 414.44 303.52 415.1 299.51 408.18"></polygon><polygon class="cls-13" points="298.59 413.69 286.5 410.24 291.92 413.99 307.05 416.46 307.49 416.24 303.52 415.1 301.18 414.44 298.59 413.69"></polygon><polygon class="cls-14" points="299.51 408.18 303.52 415.1 307.49 416.24 309.53 415.2 320.71 405.54 317.56 402.62 307.72 409.35 305.29 405.4 299.51 408.18"></polygon><polygon class="cls-15" points="305.29 405.4 307.72 409.35 317.56 402.62 315.36 400.57 305.29 405.4"></polygon><polygon class="cls-16" points="320.71 405.54 309.53 415.2 309.86 415.03 314.97 416.7 321.34 412.84 320.71 405.54"></polygon><polygon class="cls-17" points="307.05 416.46 291.92 413.99 294.32 422.94 307.05 416.46"></polygon><polygon class="cls-12" points="307.05 416.46 294.32 422.94 295.13 425.96 303.02 421.02 309.62 416.88 307.05 416.46"></polygon><polygon class="cls-12" points="296.17 433.34 294.63 430.68 283.79 430.68 293.73 446.27 296.17 433.34"></polygon><polygon class="cls-18" points="315.46 417.84 301.71 433.92 301.71 441.82 307.65 435.88 308.61 439.44 319.77 424.42 324.46 419.31 315.46 417.84"></polygon><polygon class="cls-19" points="301.71 433.92 315.46 417.84 309.62 416.88 303.02 421.02 297.55 436.63 299.53 444 301.71 441.82 301.71 433.92"></polygon><polygon class="cls-20" points="320.71 405.54 323.39 404.04 319.09 402.46 313.98 398.19 308.74 392.09 301.26 383.38 285.45 358.92 287.33 363.92 290.79 369.49 293.51 373.85 302.98 389.06 310.53 396.08 315.36 400.57 317.56 402.62 320.71 405.54"></polygon><polygon class="cls-20" points="345.17 393.6 344.59 397.56 350.17 394.31 344.86 392.45 338.58 386.44 336.55 385.96 339.12 388.24 345.17 393.6"></polygon><polygon class="cls-20" points="329.52 379.73 336.55 385.96 338.58 386.44 330.15 378.37 326.15 369.3 314.61 343.11 306.73 338.89 305.5 339.42 313.56 343.95 317.11 350.83 329.52 379.73"></polygon><polygon class="cls-20" points="353.52 365.44 361.44 378.95 363.11 376.18 360.2 371.97 359.49 370.95 355.34 364.96 349.45 356.46 346.12 355.01 350.62 361.35 353.52 365.44"></polygon><polygon class="cls-21" points="301 355.06 310.01 354.14 300.43 341.58 297.45 342.85 301 355.06"></polygon><polygon class="cls-22" points="301 355.06 297.45 342.85 295.99 343.48 298.47 355.32 301 355.06"></polygon><polygon class="cls-23" points="300.43 341.58 310.01 354.14 313.25 353.75 313.56 343.95 305.5 339.42 300.43 341.58"></polygon><polygon class="cls-24" points="313.56 343.95 313.25 353.75 310.01 354.14 329.52 379.73 317.11 350.83 313.56 343.95"></polygon><polygon class="cls-25" points="329.52 379.73 310.01 354.14 314.17 384.31 326.26 399.35 333.59 385.25 336.55 385.96 329.52 379.73"></polygon><polygon class="cls-26" points="314.17 384.31 310.01 354.14 301.05 355.21 301 355.06 298.47 355.32 298.75 356.67 294.06 359.28 314.17 384.31"></polygon><polygon class="cls-27" points="314.17 384.31 294.06 359.28 301.26 383.38 308.74 392.09 315.72 395.55 314.17 384.31"></polygon><polygon class="cls-28" points="314.17 384.31 315.72 395.55 325.67 400.48 326.26 399.35 314.17 384.31"></polygon><polygon class="cls-29" points="325.67 400.48 315.72 395.55 308.74 392.09 313.98 398.19 319.09 402.46 323.39 404.04 327.97 401.48 326.26 399.35 325.67 400.48"></polygon><polygon class="cls-30" points="333.59 385.25 326.26 399.35 327.97 401.48 337.77 396 339.12 388.24 336.55 385.96 333.59 385.25"></polygon><polygon class="cls-4" points="314.97 416.7 309.86 415.03 309.53 415.2 307.49 416.24 307.05 416.46 310.14 416.56 314.97 416.7"></polygon><polygon class="cls-31" points="324.2 404.34 328.21 406.45 330.36 404.45 323.39 404.04 324.2 404.34"></polygon><polygon class="cls-32" points="323.39 404.04 330.36 404.45 327.97 401.48 323.39 404.04"></polygon><polygon class="cls-33" points="341.31 396.52 330.36 404.45 331.13 405.96 331.4 405.91 337.56 408.31 343.5 398.19 341.31 396.52"></polygon><polygon class="cls-34" points="330.36 404.45 341.31 396.52 343.5 398.19 344.59 397.56 345.17 393.6 339.12 388.24 337.77 396 327.97 401.48 330.36 404.45"></polygon><polygon class="cls-35" points="328.21 406.45 324.2 404.34 323.39 404.04 320.71 405.54 321.34 412.84 328.21 406.45"></polygon><polygon class="cls-36" points="338.58 386.44 344.86 392.45 350.17 394.31 348.92 392.96 344.13 387.76 338.58 386.44"></polygon><polygon class="cls-37" points="356.02 381.71 348.92 392.96 350.17 394.31 353.26 392.51 358.29 384.18 356.02 381.71"></polygon><polygon class="cls-38" points="348.92 392.96 356.02 381.71 344.13 387.76 348.92 392.96"></polygon><polygon class="cls-29" points="344.13 387.76 356.02 381.71 358.29 384.18 361.44 378.95 353.52 365.44 343.32 358.08 338.98 356.13 347.68 371.17 346.11 380.35 342.88 382.23 333.91 378.89 327.94 365.14 326.15 369.3 330.15 378.37 338.58 386.44 344.13 387.76"></polygon><polygon class="cls-39" points="346.11 380.35 347.68 371.17 338.98 356.13 332.97 353.44 327.94 365.14 333.91 378.89 342.88 382.23 346.11 380.35"></polygon><polygon class="cls-40" points="327.94 365.14 332.97 353.44 320.24 347.39 327.94 365.14"></polygon><polygon class="cls-6" points="320.24 347.39 332.97 353.44 332.82 350.51 319.09 340.61 314.61 343.11 326.15 369.3 327.94 365.14 320.24 347.39"></polygon><polygon class="cls-41" points="332.82 350.51 332.97 353.44 338.98 356.13 343.32 358.08 332.82 350.51"></polygon><polygon class="cls-42" points="332.82 350.51 343.32 358.08 350.62 361.35 346.12 355.01 332.76 349.16 332.82 350.51"></polygon><polygon class="cls-35" points="350.62 361.35 343.32 358.08 353.52 365.44 350.62 361.35"></polygon><polygon class="cls-35" points="349.45 356.46 355.34 364.96 357.57 363.46 351.84 356.27 349.45 356.46"></polygon><polygon class="cls-43" points="351.84 356.27 357.57 363.46 363.7 359.37 361.13 355.53 351.84 356.27"></polygon><polygon class="cls-29" points="363.7 359.37 357.57 363.46 362.27 369.35 368.13 365.99 363.7 359.37"></polygon><polygon class="cls-37" points="368.93 367.19 363.09 370.39 365.92 373.94 370.12 370.59 370.83 370.02 368.93 367.19"></polygon><polygon class="cls-44" points="365.92 373.94 363.09 370.39 360.2 371.97 363.11 376.18 365.92 373.94"></polygon><polygon class="cls-42" points="359.49 370.95 362.27 369.35 357.57 363.46 355.34 364.96 359.49 370.95"></polygon><polygon class="cls-45" points="362.27 369.35 359.49 370.95 360.2 371.97 363.09 370.39 362.27 369.35"></polygon><polygon class="cls-34" points="362.27 369.35 363.09 370.39 368.93 367.19 368.13 365.99 362.27 369.35"></polygon><polygon class="cls-46" points="337.56 408.31 331.4 405.91 331.13 405.96 333.7 411.02 337.56 408.31"></polygon><polygon class="cls-47" points="343.5 398.19 337.56 408.31 333.7 411.02 332.08 422.37 339.96 412.06 353.26 392.51 350.17 394.31 344.59 397.56 343.5 398.19"></polygon><polygon class="cls-36" points="328.38 406.53 331.13 405.96 330.36 404.45 328.21 406.45 328.38 406.53"></polygon><polygon class="cls-38" points="331.13 405.96 328.38 406.53 328.21 406.45 323.3 411.02 333.7 411.02 331.13 405.96"></polygon><polygon class="cls-48" points="333.7 411.02 323.3 411.02 321.34 412.84 315.46 417.84 324.46 419.31 319.77 424.42 316.17 446.9 323.06 446.9 330.57 432.93 332.08 422.37 333.7 411.02"></polygon><polygon class="cls-49" points="339.96 412.06 332.08 422.37 330.57 432.93 323.06 446.9 340.89 446.9 348.07 441.33 344.58 429.33 339.96 412.06"></polygon><polygon class="cls-50" points="381.62 395.8 344.58 429.33 348.07 441.33 380.58 416.08 381.62 395.8"></polygon><polygon class="cls-51" points="371.88 383.9 381.84 391.37 382.05 387.26 373.22 383.12 371.88 383.9"></polygon><polygon class="cls-22" points="384.39 393.29 381.62 395.8 380.58 416.08 404.29 397.67 382.05 387.26 381.84 391.37 384.39 393.29"></polygon><polygon class="cls-52" points="382.05 387.26 404.29 397.67 409.31 393.77 395.55 359.7 383.19 364.86 382.05 387.26"></polygon><polygon class="cls-53" points="388.53 322.05 381.33 324.55 379.49 331.54 372.5 334.36 371.32 340.17 375.74 339.31 372.24 350.3 383.19 364.86 395.55 359.7 409.31 393.77 419.8 385.62 416.88 367.26 388.53 322.05"></polygon><polygon class="cls-54" points="383.19 364.86 372.24 350.3 371.05 354.02 363.7 359.37 368.13 365.99 368.93 367.19 370.83 370.02 371.84 369.6 383.19 364.86"></polygon><polygon class="cls-51" points="372.24 350.3 375.74 339.31 371.32 340.17 369.89 347.18 372.24 350.3"></polygon><polygon class="cls-55" points="372.24 350.3 369.89 347.18 366.51 354.08 361.13 355.53 363.7 359.37 371.05 354.02 372.24 350.3"></polygon><polygon class="cls-56" points="366.51 354.08 369.89 347.18 368.36 347.59 365.93 352.81 361.13 355.53 366.51 354.08"></polygon><polygon class="cls-57" points="337.19 314.9 337.01 320.31 347.03 321.31 338.22 313.14 337.19 314.9"></polygon><polygon class="cls-58" points="347.03 321.31 337.01 320.31 336.98 321.15 341.42 336.13 344.96 336.13 344.96 330.07 344.96 324.02 348.23 321.43 347.03 321.31"></polygon><polygon class="cls-59" points="337.66 336.13 328.27 319.44 325.56 330.07 327.44 336.13 337.66 336.13"></polygon><polygon class="cls-60" points="337.66 336.13 327.44 336.13 343.29 346.14 337.66 336.13"></polygon><polygon class="cls-61" points="337.66 336.13 343.29 346.14 351.52 342.82 347.48 334.93 352.27 327.19 344.96 330.07 344.96 336.13 341.42 336.13 337.66 336.13"></polygon><polygon class="cls-6" points="344.96 330.07 352.27 327.19 355.39 322.15 348.23 321.43 344.96 324.02 344.96 330.07"></polygon><polygon class="cls-62" points="359.83 312.23 361.65 319.02 373.91 312.9 372.24 312.6 357.64 304.05 359.25 310.06 359.83 312.23"></polygon><polygon class="cls-6" points="361.65 319.02 359.83 312.23 348.23 321.43 355.39 322.15 361.65 319.02"></polygon><polygon class="cls-63" points="348.23 321.43 359.83 312.23 359.25 310.06 338.22 313.14 347.03 321.31 348.23 321.43"></polygon><polygon class="cls-4" points="365.39 341.31 361.13 355.53 365.93 352.81 368.36 347.59 369.89 347.18 371.32 340.17 365.39 341.31"></polygon><polygon class="cls-64" points="365.39 341.31 371.32 340.17 372.5 334.36 366.79 336.66 365.39 341.31"></polygon><polygon class="cls-65" points="366.79 336.66 371.96 319.41 352.27 327.19 347.48 334.93 351.52 342.82 366.79 336.66"></polygon><polygon class="cls-19" points="371.96 319.41 366.79 336.66 372.5 334.36 373.97 327.11 381.33 324.55 383.92 314.69 371.96 319.41"></polygon><polygon class="cls-57" points="383.92 314.69 381.33 324.55 388.53 322.05 383.92 314.69"></polygon><polygon class="cls-23" points="381.33 324.55 373.97 327.11 372.5 334.36 379.49 331.54 381.33 324.55"></polygon><polygon class="cls-27" points="371.96 319.41 383.92 314.69 373.91 312.9 371.96 319.41"></polygon><polygon class="cls-66" points="371.96 319.41 373.91 312.9 361.65 319.02 355.39 322.15 352.27 327.19 371.96 319.41"></polygon><polygon class="cls-27" points="324.66 313.18 328.27 319.44 336.29 320.24 331.14 313.44 324.66 313.18"></polygon><polygon class="cls-63" points="328.27 319.44 337.66 336.13 341.42 336.13 336.98 321.15 336.29 320.24 328.27 319.44"></polygon><polygon class="cls-38" points="379.91 429.26 379.39 439.6 399.79 434.13 419.8 385.62 379.91 429.26"></polygon><polygon class="cls-66" points="379.91 429.26 419.8 385.62 409.31 393.77 404.29 397.67 380.58 416.08 379.91 429.26"></polygon><polygon class="cls-67" points="379.91 429.26 380.58 416.08 348.07 441.33 353.45 444.44 379.91 429.26"></polygon><polygon class="cls-10" points="379.91 429.26 353.45 444.44 360.02 448.23 379.39 439.6 379.91 429.26"></polygon><polygon class="cls-23" points="355.5 461.92 340.89 446.9 323.06 446.9 316.17 446.9 311.74 474.49 355.61 462.74 355.5 461.92"></polygon><polygon class="cls-68" points="340.89 446.9 355.5 461.92 355.61 462.74 355.71 462.71 372.5 457.96 371.96 455.12 360.02 448.23 353.45 444.44 348.07 441.33 340.89 446.9"></polygon><polygon class="cls-69" points="371.96 455.12 372.5 457.96 392.27 452.38 399.79 434.13 379.39 439.6 360.02 448.23 371.96 455.12"></polygon><polygon class="cls-38" points="393.88 435.71 371.96 455.12 372.5 457.96 392.27 452.38 399.79 434.13 393.88 435.71"></polygon><polygon class="cls-70" points="374.69 599.66 355.61 462.74 311.74 474.49 334.27 599.66 374.69 599.66"></polygon><polygon class="cls-6" points="355.61 462.74 374.69 599.66 399.41 599.66 372.5 457.96 355.71 462.71 355.61 462.74"></polygon><polygon class="cls-71" points="372.5 457.96 399.41 599.66 433.99 599.66 404.78 507.45 392.27 452.38 372.5 457.96"></polygon><polygon class="cls-22" points="316.21 334.44 320.76 325.28 328.27 319.44 324.66 313.18 320.71 313.02 309 319.05 316.21 334.44"></polygon><polygon class="cls-57" points="320.76 325.28 316.21 334.44 319.09 340.61 332.82 350.51 332.76 349.16 325.33 341.74 321.81 338.21 320.76 325.28"></polygon><polygon class="cls-12" points="320.76 325.28 321.81 338.21 325.33 341.74 327.44 336.13 325.56 330.07 328.27 319.44 320.76 325.28"></polygon><polygon class="cls-72" points="343.29 346.14 327.44 336.13 325.33 341.74 332.76 349.16 346.12 355.01 349.45 356.46 351.84 356.27 358.14 355.77 352.06 343.9 352.07 343.9 351.52 342.82 343.29 346.14"></polygon><polygon class="cls-53" points="352.06 343.9 358.14 355.77 361.13 355.53 365.39 341.31 352.07 343.9 352.06 343.9"></polygon><polygon class="cls-50" points="352.07 343.9 365.39 341.31 366.79 336.66 351.52 342.82 352.07 343.9"></polygon><path class="cls-73" d="M424.53,524.79c-3.3-18.6,7.34-45.67-8.48-57.61-38.13-31.35-124-2.18-122-46.56-1.28-2.86-5.84-10.53-6.64-8.56C261,476.69,394.46,483.86,424.53,524.79Z"></path><path class="cls-74" d="M412.52,362.18A80.87,80.87,0,0,0,422.06,377a63.9,63.9,0,0,1-10.12-15.4,41.34,41.34,0,0,1-2.08-5.56l.12.2a62.85,62.85,0,0,0,2.53,5.91Z"></path><path class="cls-73" d="M425.2,529.27c-3.3-18.6,5.07-43.48-10.75-55.43C376.31,442.5,290.8,463,292.81,418.56c-1.28-2.86-4.56-9.25-5.36-7.28C261.08,475.91,395.13,488.34,425.2,529.27Z"></path><path class="cls-4" d="M415.3,517.53c-15.42-12.3-40.08-22.07-63.88-32.45-25.88-10.61-50.35-21.48-61-39.07-6.86-9.95-8.53-21.8-2.74-36,.07-.17-.11,0,0,0l-6.11-13.66c-41.09,82.07,99.3,124.79,138.73,157.2l14.6,46.1c-6.61-22.33-5.69-48.67-9.88-72.29A66.51,66.51,0,0,0,415.3,517.53Z"></path></svg>