<svg xmlns="http://www.w3.org/2000/svg" id="Layer_1" data-name="Layer 1" viewBox="0 0 219.93 299.22"><defs><style>.cls-1{fill:#97bbbb;}.cls-2{fill:#662f90;}</style></defs><rect class="cls-1" x="13.5" y="11.64" width="1.31" height="284.76"></rect><polygon class="cls-1" points="194.07 11.64 194.07 246.57 192.75 245.25 192.75 11.64 194.07 11.64"></polygon><polygon class="cls-1" points="192.75 258.67 194.07 259.99 194.07 296.4 192.75 296.4 192.75 258.67"></polygon><rect class="cls-1" x="11.01" y="292.61" width="185.52" height="1.32"></rect><rect class="cls-1" x="11.01" y="14.13" width="185.52" height="1.32"></rect><polygon class="cls-2" points="11.01 296.4 12.33 296.4 13.5 296.4 14.81 296.4 192.75 296.4 194.07 296.4 195.21 296.4 196.53 296.4 196.53 295.08 195.21 295.08 194.07 295.08 192.75 295.08 14.81 295.08 13.5 295.08 12.33 295.08 11.01 295.08 11.01 296.4"></polygon><polygon class="cls-2" points="196.53 11.64 195.21 11.64 194.07 11.64 192.75 11.64 14.81 11.64 13.5 11.64 12.33 11.64 11.01 11.64 11.01 12.96 12.33 12.96 13.5 12.96 14.81 12.96 192.75 12.96 194.07 12.96 195.21 12.96 196.53 12.96 196.53 11.64"></polygon><rect class="cls-2" x="11.01" y="11.64" width="1.32" height="284.76"></rect><polygon class="cls-2" points="196.53 11.64 196.53 249.03 195.21 247.71 195.21 11.64 196.53 11.64"></polygon><polygon class="cls-2" points="195.21 261.13 196.53 262.45 196.53 296.4 195.21 296.4 195.21 261.13"></polygon><polygon class="cls-2" points="206.89 256.32 204.08 253.5 202.76 252.18 200.3 249.72 159.2 208.62 158.26 207.69 157.42 206.85 158.36 205.91 159.2 206.75 160.13 207.69 202.16 249.72 203.48 251.04 204.62 252.18 205.94 253.5 207.83 255.38 206.89 256.32"></polygon><polygon class="cls-2" points="196.05 267.16 182.39 253.5 181.07 252.18 178.61 249.72 148.35 219.47 147.42 218.53 146.58 217.69 147.51 216.76 148.35 217.6 149.28 218.54 180.47 249.72 181.79 251.04 182.93 252.18 184.25 253.5 196.98 266.23 196.05 267.16"></polygon><polygon class="cls-1" points="207.23 257.85 208.07 258.69 207.13 259.63 206.29 258.79 199.58 265.5 200.42 266.34 199.49 267.27 198.65 266.43 196.98 268.1 196.05 267.17 197.72 265.5 196.53 264.31 195.21 262.99 192.75 260.53 150.02 217.81 149.09 216.87 150.03 215.94 150.96 216.87 192.75 258.67 194.07 259.99 195.21 261.13 196.53 262.45 198.65 264.57 205.36 257.86 196.53 249.03 195.21 247.71 194.07 246.57 192.75 245.25 157.67 210.16 156.74 209.23 157.67 208.3 158.6 209.23 192.75 243.37 194.07 244.69 195.21 245.83 196.53 247.15 206.3 256.92 207.83 255.39 208.76 256.32 207.23 257.85"></polygon><rect class="cls-2" x="206.11" y="271.71" width="0.03" height="0.61" transform="translate(-131.4 221.47) rotate(-44.33)"></rect><rect class="cls-1" x="201.89" y="267.04" width="1.32" height="4.7" transform="translate(-131.16 222.13) rotate(-45)"></rect><polygon class="cls-1" points="154.69 205.31 154.71 205.33 154.67 205.33 154.69 205.31"></polygon><rect class="cls-1" x="209.52" y="259.39" width="1.33" height="4.7" transform="translate(-123.52 225.28) rotate(-45)"></rect><polygon class="cls-1" points="205.61 274.82 204.68 273.89 205.4 273.17 204.67 272.44 205.6 271.51 205.9 271.8 206.33 272.24 206.35 272.22 213.04 265.53 212.31 264.8 213.25 263.86 213.47 264.08 213.98 264.59 214.57 264 214.89 264.31 215.5 264.93 214.91 265.52 213.98 266.45 207.28 273.15 206.33 274.1 205.61 274.82"></polygon><polygon class="cls-2" points="156.49 205.91 154.98 204.41 153.66 203.09 155.54 203.09 156.86 204.41 157.42 204.98 156.49 205.91"></polygon><polygon class="cls-2" points="145.64 216.76 145.19 216.31 143.87 214.99 143.87 213.12 145.19 214.44 146.57 215.83 145.64 216.76"></polygon><polygon class="cls-2" points="204.16 275.27 203.73 274.84 203 274.11 203.01 274.1 204.17 275.26 204.16 275.27"></polygon><rect class="cls-1" x="203.94" y="274.75" width="0.01" height="0.61" transform="translate(-134.75 224.73) rotate(-44.99)"></rect><rect class="cls-2" x="203.87" y="273.05" width="0.03" height="0.14" transform="translate(-133.38 223.96) rotate(-44.97)"></rect><polygon class="cls-1" points="154.74 205.36 154.71 205.33 154.74 205.33 154.74 205.36"></polygon><rect class="cls-1" x="143.87" y="205.33" width="1.32" height="1.31"></rect><polygon class="cls-2" points="156.86 204.41 147.42 204.41 147.42 203.09 155.54 203.09 156.86 204.41"></polygon><rect class="cls-2" x="143.87" y="203.09" width="2.23" height="1.32"></rect><polygon class="cls-2" points="145.19 216.31 143.87 214.99 143.87 203.09 145.19 203.09 145.19 216.31"></polygon><path class="cls-1" d="M158.36,205.92l-.94-.93-1.53,1.53-1.15-1.15,0,0h-7.29V203.1H146.1v2.24h-.91v1.31h.91v7.25h0l1.19,1.2-1.67,1.67.94.93,1.67-1.67.84.84.94-.93-.85-.84,6.71-6.71.85.84.93-.93-.84-.85Zm-10.11,8.24-.83-.83v-6.68h6.74l.8.8Z"></path><polygon class="cls-2" points="148.35 219.47 147.42 218.53 148.35 217.6 149.09 216.86 150.03 215.93 156.74 209.22 157.67 208.29 158.26 207.69 159.2 206.75 160.13 207.69 159.2 208.62 158.6 209.22 157.67 210.15 150.96 216.86 148.35 219.47"></polygon><path class="cls-2" d="M215.82,263.39l-.31-.32-.61-.6-.12-.13-6-6-.94.94.84.84-.59.59-.94.94L198.75,268l-.84-.84-.93.93,6,6h0l1.66,1.66.94-.94-.93-.93,0,0-.73-.73-.1-.1,0,0,.1.1.72-.72.93-.93,6.71-6.71.94-.94.59-.59.73.73.32.31.61.62.94-.94Zm-3.5-.45-.94.94L203,272.26l-3.32-3.32.74-.74.93-.93,6.71-6.71.94-.94.59-.59,3.32,3.32Z"></path><polygon class="cls-2" points="204.66 273.91 203.93 273.18 203.83 273.08 203.85 273.06 203.95 273.16 204.68 273.89 204.66 273.91"></polygon><rect class="cls-1" x="26.16" y="112.54" width="155.22" height="1.32"></rect><polygon class="cls-2" points="181.38 99.53 180.28 99.53 179.32 99.53 178.22 99.53 29.34 99.53 28.24 99.53 27.26 99.53 26.16 99.53 26.16 100.85 27.26 100.85 28.24 100.85 29.34 100.85 178.22 100.85 179.32 100.85 180.28 100.85 181.38 100.85 181.38 99.53"></polygon><rect class="cls-1" x="26.16" y="138.57" width="155.22" height="1.32"></rect><polygon class="cls-2" points="181.38 125.56 180.28 125.56 179.32 125.56 178.22 125.56 29.34 125.56 28.24 125.56 27.26 125.56 26.16 125.56 26.16 126.88 27.26 126.88 28.24 126.88 29.34 126.88 178.22 126.88 179.32 126.88 180.28 126.88 181.38 126.88 181.38 125.56"></polygon><rect class="cls-1" x="26.16" y="164.59" width="155.22" height="1.32"></rect><polygon class="cls-2" points="181.38 151.58 180.28 151.58 179.32 151.58 178.22 151.58 29.34 151.58 28.24 151.58 27.26 151.58 26.16 151.58 26.16 152.9 27.26 152.9 28.24 152.9 29.34 152.9 178.22 152.9 179.32 152.9 180.28 152.9 181.38 152.9 181.38 151.58"></polygon><rect class="cls-1" x="26.16" y="190.62" width="83.81" height="1.32"></rect><polygon class="cls-2" points="181.38 177.61 180.28 177.61 179.32 177.61 178.22 177.61 29.34 177.61 28.24 177.61 27.26 177.61 26.16 177.61 26.16 178.93 27.26 178.93 28.24 178.93 29.34 178.93 178.22 178.93 179.32 178.93 180.28 178.93 181.38 178.93 181.38 177.61"></polygon><rect class="cls-2" x="26.16" y="36.71" width="155.22" height="1.32"></rect><polygon class="cls-1" points="181.38 34.22 180.28 34.22 179.32 34.22 178.22 34.22 29.34 34.22 28.24 34.22 27.26 34.22 26.16 34.22 26.16 35.54 27.26 35.54 28.24 35.54 29.34 35.54 178.22 35.54 179.32 35.54 180.28 35.54 181.38 35.54 181.38 34.22"></polygon><rect class="cls-2" x="26.16" y="61.95" width="155.22" height="1.32"></rect><polygon class="cls-1" points="26.16 65.75 27.26 65.75 28.22 65.75 29.32 65.75 178.2 65.75 179.3 65.75 180.28 65.75 181.38 65.75 181.38 64.43 180.28 64.43 179.3 64.43 178.2 64.43 29.32 64.43 28.22 64.43 27.26 64.43 26.16 64.43 26.16 65.75"></polygon><rect class="cls-2" x="177.57" y="34.22" width="1.32" height="31.54"></rect><polygon class="cls-1" points="181.38 65.75 181.38 65.53 181.38 65.34 181.38 65.11 181.38 34.86 181.38 34.64 181.38 34.44 181.38 34.22 180.06 34.22 180.06 34.44 180.06 34.64 180.06 34.86 180.06 65.11 180.06 65.34 180.06 65.53 180.06 65.75 181.38 65.75"></polygon><rect class="cls-2" x="29.97" y="38.03" width="147.6" height="23.92"></rect><rect class="cls-2" x="28.65" y="34.22" width="1.32" height="31.54"></rect><polygon class="cls-1" points="26.16 34.22 26.16 34.44 26.16 34.63 26.16 34.86 26.16 65.11 26.16 65.33 26.16 65.53 26.16 65.75 27.48 65.75 27.48 65.53 27.48 65.33 27.48 65.11 27.48 34.86 27.48 34.63 27.48 34.44 27.48 34.22 26.16 34.22"></polygon></svg>