<svg xmlns="http://www.w3.org/2000/svg" id="Layer_1" data-name="Layer 1" viewBox="0 0 219.93 299.22"><defs><style>.cls-1,.cls-3{fill:#587a69;}.cls-1,.cls-4,.cls-5,.cls-6{fill-rule:evenodd;}.cls-2,.cls-5{fill:#d7df27;}.cls-4,.cls-7{fill:#577a69;}.cls-6{fill:#c6dd74;}</style></defs><path class="cls-1" d="M29,92.09l-.81.81-8.45-8.44v0l-1.17-1.18-.77-.75-1.19-1.19-7-7V72.65l.92.92L12,75.07l4.86,4.86,1.18,1.18.75.75L20,83h0Z"></path><path class="cls-2" d="M109.06,192.2l0,0v0Z"></path><path class="cls-2" d="M110,243.87v6.57h-1.3v-6.57l0-47.94v-3.21h.22a.33.33,0,0,0,.14,0H110v3.2Z"></path><path class="cls-2" d="M113.27,243.94v6.56h-.58a5.77,5.77,0,0,0-.72,0V243.9l0-48v-3.21h.21l1.09,0v3.2Z"></path><path class="cls-3" d="M116.52,244.12v6.56l-.54,0h0l-.73,0V244l0-48.25v-3.2h.22l1.08-.07v3.2Z"></path><path class="cls-3" d="M106.76,243.92v6.57h-.58c-.23,0-.48,0-.72,0V247l0-.71V244l0-48.11v-3.22a.71.71,0,0,0,.21,0c.36,0,.72,0,1.09,0v3.2Z"></path><path class="cls-2" d="M192.31,288.62h-5.62l-70.13,0H95.66l-62.5,0h-6.1c.3-.46.6-.91.91-1.35h6.19l61.54,0h20.86l69.06-.05h5.78C191.71,287.71,192,288.17,192.31,288.62Z"></path><path class="cls-3" d="M194.48,292h-4.8l-73.11,0H95.38l-64.59,0h-5.9c.28-.44.56-.9.86-1.34h6l63.81,0h2.65l1.69,0h16.71l72.19,0h4.85C193.92,291.07,194.2,291.53,194.48,292Z"></path><path class="cls-1" d="M109.06,195.42h0Z"></path><path class="cls-1" d="M109.77,195.94h0Z"></path><path class="cls-1" d="M109.06,195.42h0Z"></path><path class="cls-1" d="M109.06,195.42h0Z"></path><path class="cls-4" d="M185.62,287.26l-69.06.05H95.7l-61.54,0h-.43a96.48,96.48,0,0,1,24.34-22c.36-.25.75-.49,1.15-.72s.75-.44,1.1-.67l1.16-.7a96.07,96.07,0,0,1,43.4-12.71h0a5.07,5.07,0,0,1,.55,0c.24,0,.49,0,.72,0h.58c.47,0,.92,0,1.38,0H110c.46,0,.93,0,1.38,0h0a5.06,5.06,0,0,1,.55,0,5.77,5.77,0,0,1,.72,0h.58l1.38.07h0a4.75,4.75,0,0,1,.54,0l.73,0h0l.54,0a96,96,0,0,1,41,12.34c.39.24.78.47,1.18.68s.74.46,1.12.67.77.48,1.16.74A96.46,96.46,0,0,1,185.62,287.26Z"></path><path class="cls-5" d="M190.83,292h-1.7c-.29-.44-.6-.88-.92-1.31,0,0,0,0,0,0-.45-.64-.92-1.27-1.41-1.9a.76.76,0,0,0-.08-.11c-.3-.4-.61-.82-.93-1.2a.7.7,0,0,0-.14-.16,96.46,96.46,0,0,0-24.68-22.15c-.39-.26-.76-.5-1.16-.74s-.75-.43-1.12-.67-.79-.44-1.18-.68a96,96,0,0,0-41-12.34l-.54,0h0l-.73,0a4.75,4.75,0,0,0-.54,0h0l-1.38-.07h-.58a5.77,5.77,0,0,0-.72,0,5.06,5.06,0,0,0-.55,0h0c-.45,0-.92,0-1.38,0h-1.87c-.46,0-.91,0-1.38,0h-.58c-.23,0-.48,0-.72,0a5.07,5.07,0,0,0-.55,0h0a96.07,96.07,0,0,0-43.4,12.71l-1.16.7c-.35.23-.74.45-1.1.67s-.79.47-1.15.72a96.48,96.48,0,0,0-24.34,22l-.12.14c-.32.39-.63.81-.92,1.21a.76.76,0,0,0-.08.11c-.5.63-1,1.27-1.42,1.91l0,0c-.32.43-.63.86-.92,1.3H28.53c.3-.44.59-.87.9-1.3,0,0,0,0,0,0,.44-.64.91-1.28,1.38-1.91l.08-.11c.29-.4.6-.82.92-1.21l.12-.14a98.28,98.28,0,0,1,23.6-22l1.13-.72c.12-.1.24-.16.37-.26l.7-.44a4,4,0,0,1,.44-.27,7.68,7.68,0,0,1,.71-.45,97.46,97.46,0,0,1,46-14h0c.19,0,.36,0,.55,0l.72,0h.58l1.38,0H112c.24,0,.48,0,.72,0h0l.55,0,1.38.05h0l.54,0,.73,0h0l.54,0a97,97,0,0,1,41.76,12.63c.29.15.58.31.88.5.54.31,1.08.64,1.63,1,.39.23.77.45,1.16.71a98.9,98.9,0,0,1,25.47,23.17l.12.16c.31.38.61.8.92,1.2a.76.76,0,0,1,.08.11c.46.63.93,1.26,1.37,1.9,0,0,0,0,0,0C190.24,291.11,190.55,291.54,190.83,292Z"></path><path class="cls-1" d="M194.48,292h-1.7c-.28-.44-.58-.88-.87-1.31-.43-.65-.87-1.3-1.34-1.94-.31-.44-.62-.89-.94-1.31a98.9,98.9,0,0,0-27-25.26c-.38-.26-.77-.5-1.15-.72a98,98,0,0,0-44.92-14.35l-.58,0-.74-.05-.57,0-1.37-.06h-.58c-.24,0-.48,0-.73,0h-3.84c-.45,0-.91,0-1.36,0h-.58c-.24,0-.48,0-.74,0l-.57,0a98.39,98.39,0,0,0-47.34,14.71l-1.14.72-.9.59a99.66,99.66,0,0,0-23.3,21.25c-.84,1.06-1.66,2.13-2.46,3.23-.34.43-.65.87-.94,1.32-.47.64-.93,1.3-1.35,1.95-.3.43-.59.86-.87,1.3H24.89c.28-.43.56-.87.86-1.3.41-.65.86-1.31,1.31-1.95.3-.45.6-.89.91-1.32.78-1.1,1.6-2.17,2.43-3.23a100.15,100.15,0,0,1,23.87-22.14c.37-.25.75-.51,1.16-.75l.06-.05c.34-.24.69-.44,1.06-.67s.77-.49,1.17-.73a99.66,99.66,0,0,1,47.15-14.37l.57,0,.74,0h.58c.45,0,.91,0,1.36,0a5.61,5.61,0,0,1,.58,0c.24,0,.48,0,.74,0H110c.46,0,.93,0,1.37,0h1.31l.58,0,1.37,0a5.66,5.66,0,0,1,.57,0c.26,0,.5,0,.74,0l.58,0a98.91,98.91,0,0,1,42.91,12.94,5.35,5.35,0,0,1,.89.51c.73.41,1.44.84,2.14,1.28l1.17.74a100.87,100.87,0,0,1,27.76,26.28c.31.42.61.87.91,1.31.45.64.88,1.29,1.3,1.94C193.92,291.1,194.2,291.54,194.48,292Z"></path><path class="cls-1" d="M105.63,195.85h-.21v0A.71.71,0,0,0,105.63,195.85Z"></path><path class="cls-1" d="M108.78,195.94h0Z"></path><path class="cls-1" d="M108.89,195.93h0Z"></path><path class="cls-1" d="M109.06,195.42h0Z"></path><polygon class="cls-3" points="201.65 82.95 200.73 83.86 200.73 83.85 201.65 82.95"></polygon><path class="cls-3" d="M158.58,173.62c-.21.15-.43.29-.65.42l-.41.25-.94-.94a11.22,11.22,0,0,0,1.06-.67Z"></path><path class="cls-3" d="M83.56,153.25,63.21,173.6h0l-1.55,1.55-1.07-.67,22.11-22.11Z"></path><path class="cls-2" d="M86.9,151.57l.86.87L65.35,174.86c-.37-.23-.73-.44-1.1-.65Z"></path><rect class="cls-2" x="87.98" y="150.17" width="1.12" height="1.22" transform="translate(-80.68 106.76) rotate(-44.99)"></rect><rect class="cls-2" x="85.66" y="139.04" width="28.03" height="1.22" transform="translate(-69.55 111.39) rotate(-45)"></rect><rect class="cls-2" x="110.28" y="127.85" width="1.17" height="1.22" transform="translate(-58.36 116.03) rotate(-45)"></rect><path class="cls-3" d="M19.69,82.73a.09.09,0,0,1,0,0L19,82.05a0,0,0,0,0,0,0Z"></path><path class="cls-3" d="M20.84,83.93l-1.16-1.15a.09.09,0,0,0,0,0l1.15,1.16Z"></path><path class="cls-3" d="M82.74,147.42,28.85,93.56l-8.22-8.21v0l8.24,8.23Z"></path><polygon class="cls-3" points="86.89 149.92 87.71 150.75 86.9 151.57 86.07 150.75 86.89 149.92"></polygon><polygon class="cls-3" points="108.34 171.36 107.51 172.19 87.76 152.44 88.58 151.61 108.34 171.36"></polygon><rect class="cls-3" x="108.56" y="172.44" width="1.17" height="1.12" transform="translate(-90.36 127.86) rotate(-45)"></rect><rect class="cls-2" x="87.92" y="148.54" width="1.17" height="1.17" transform="translate(-79.53 106.27) rotate(-45)"></rect><polygon class="cls-2" points="90.2 149.99 109.94 169.75 109.13 170.56 89.37 150.82 90.2 149.99"></polygon><rect class="cls-2" x="110.18" y="170.82" width="1.15" height="1.12" transform="translate(-88.76 128.57) rotate(-45.02)"></rect><path class="cls-3" d="M85.19,149.87l.88.88L63.21,173.6l-1.08-.67Z"></path><rect class="cls-3" x="86.29" y="148.48" width="1.12" height="1.22" transform="translate(-79.98 105.06) rotate(-44.99)"></rect><rect class="cls-3" x="83.97" y="137.34" width="28.03" height="1.22" transform="translate(-68.85 109.69) rotate(-45)"></rect><rect class="cls-3" x="108.59" y="126.15" width="1.17" height="1.22" transform="translate(-57.66 114.33) rotate(-45)"></rect><rect class="cls-2" x="108.56" y="127.87" width="1.22" height="1.17" transform="translate(-58.86 114.85) rotate(-45.01)"></rect><rect class="cls-2" x="119.72" y="125.65" width="1.22" height="27.94" transform="translate(-63.48 125.96) rotate(-44.99)"></rect><rect class="cls-2" x="130.82" y="150.16" width="1.22" height="1.12" transform="translate(-68.08 137.06) rotate(-44.99)"></rect><path class="cls-2" d="M155.54,174l-1.07.65-22.26-22.25.87-.87Z"></path><polygon class="cls-3" points="111.56 173.01 110.77 173.81 110.69 173.72 110.04 173.06 109.96 172.99 109.96 172.98 110.75 172.19 111.56 173.01"></polygon><polygon class="cls-3" points="132.21 152.37 112.39 172.19 111.56 171.37 131.4 151.55 132.21 152.37"></polygon><rect class="cls-3" x="132.5" y="150.1" width="1.17" height="1.15" transform="translate(-67.56 138.17) rotate(-44.98)"></rect><rect class="cls-2" x="108.59" y="170.79" width="1.12" height="1.17" transform="translate(-89.21 127.36) rotate(-45)"></rect><rect class="cls-2" x="106.26" y="159.67" width="28.04" height="1.17" transform="translate(-78.08 131.92) rotate(-44.98)"></rect><rect class="cls-2" x="130.88" y="148.48" width="1.17" height="1.17" transform="translate(-66.9 136.63) rotate(-45)"></rect><rect class="cls-3" x="110.25" y="126.18" width="1.22" height="1.17" transform="translate(-57.17 115.55) rotate(-45.01)"></rect><rect class="cls-3" x="121.41" y="123.95" width="1.22" height="27.94" transform="translate(-61.79 126.72) rotate(-45.01)"></rect><rect class="cls-3" x="132.52" y="148.47" width="1.22" height="1.12" transform="translate(-66.39 137.83) rotate(-45.01)"></rect><path class="cls-1" d="M200.73,83.85h0l.92-.91Z"></path><path class="cls-1" d="M201.42,79.91,200.29,81c.1.46.18.91.24,1.38l.91-.91.23-.23C201.59,80.82,201.51,80.36,201.42,79.91ZM109.7,3.49A93.3,93.3,0,0,0,18.32,78.11l1.14,1.14a91.94,91.94,0,0,1,180.59.4l1.11-1.11A93.27,93.27,0,0,0,109.7,3.49Zm92.44,80.85c0-.32-.11-.67-.15-1s-.06-.43-.1-.65l-.24.25h0l-.92.91a90.06,90.06,0,0,1,.92,12.9,91.88,91.88,0,0,1-42.45,77.49l-1.06.66A92.14,92.14,0,0,1,72.91,181l-1.3-.59a88.6,88.6,0,0,1-10-5.3c-.36-.22-.72-.43-1.07-.67a91.9,91.9,0,0,1-41.84-91h0l-1.17-1.15c-.07.4-.13.81-.19,1.22s-.1.63-.14.93a94.23,94.23,0,0,0-.81,12.3,93.19,93.19,0,0,0,43.2,78.67c.35.24.71.45,1.07.67.66.41,1.33.82,2,1.2.28.18.54.34.82.49,2.52,1.43,5.1,2.76,7.75,4,.43.19.86.39,1.3.57A93.38,93.38,0,0,0,158,176.57c.36-.23.74-.46,1.07-.69a11.22,11.22,0,0,0,1.06-.67c.36-.21.72-.47,1.06-.68A93.14,93.14,0,0,0,203,96.76,94.56,94.56,0,0,0,202.14,84.34ZM18.05,79.48c-.09.47-.17,1-.25,1.42L19,82.05a0,0,0,0,0,0,0,.49.49,0,0,1,0-.12c.07-.43.13-.84.23-1.26Z"></path><polygon class="cls-1" points="200.53 82.41 199.77 83.18 199.77 83.16 200.53 82.41"></polygon><path class="cls-1" d="M159.2,174.24c-.36.24-.71.46-1.06.67l-.62-.62.41-.25c.22-.13.44-.27.65-.42Z"></path><path class="cls-5" d="M199.54,81.78l-1.1,1.1v0c.07.46.15.93.2,1.38l1.13-1.12v0C199.7,82.71,199.62,82.24,199.54,81.78ZM109.7,5.68A91.13,91.13,0,0,0,20.16,80l1.11,1.11a89.81,89.81,0,0,1,176.93.44l1.1-1.1A91.07,91.07,0,0,0,109.7,5.68Zm90.28,79v0l-1.16,1.16a85.28,85.28,0,0,1,.67,11,89.67,89.67,0,0,1-41.85,75.92,10.23,10.23,0,0,1-1.07.67c-.33.22-.68.42-1,.62h0c-.36.23-.71.44-1.07.65a90,90,0,0,1-81,4.31c-.43-.18-.87-.38-1.3-.59-2.32-1.05-4.58-2.22-6.79-3.47l-.46-.29-.2-.12h0l-.4-.23c-.33-.21-.68-.41-1-.61h0c-.37-.23-.71-.46-1.08-.67a89.72,89.72,0,0,1-42.2-76.18,91.34,91.34,0,0,1,.71-11.4h0L19.49,84.2v0c0,.18-.06.38-.1.54a91.38,91.38,0,0,0,41.81,89.1c.36.23.71.46,1.07.67s1,.62,1.53.91a8.8,8.8,0,0,0,.8.46q3.53,2,7.22,3.71c.43.2.86.39,1.3.57a91.2,91.2,0,0,0,83.75-5.46c.21-.15.44-.28.65-.43s.27-.16.41-.24.44-.28.65-.43l.35-.22c.36-.22.71-.45,1-.68a91,91,0,0,0,40.79-76A89.94,89.94,0,0,0,200,84.64ZM19.92,81.34c-.08.43-.15.86-.22,1.29a.28.28,0,0,0,0,.1.09.09,0,0,1,0,0l1.16,1.15v-.07s0-.07,0-.08c.07-.44.11-.86.19-1.29v0Z"></path><polygon class="cls-1" points="82.75 147.42 82.73 147.44 20.63 85.34 82.75 147.42"></polygon><path class="cls-1" d="M86,149.05h0l-.81.82-2.46-2.46L28.87,93.55l.79-.79-8.82-8.82v-.08Z"></path><path class="cls-1" d="M157.64,172.68a11.22,11.22,0,0,1-1.06.67l-20.43-20.42-2.24-2.25.87-.87,2.24,2.25Z"></path><polygon class="cls-6" points="110.69 173.72 110.03 173.08 110.04 173.06 110.69 173.72"></polygon><polygon class="cls-1" points="112.39 172.19 111.56 173.01 110.75 172.19 111.56 171.37 112.39 172.19"></polygon><rect class="cls-2" x="109.37" y="169.98" width="1.15" height="1.17" transform="translate(-88.4 127.68) rotate(-44.99)"></rect><rect class="cls-2" x="107.75" y="171.6" width="1.17" height="1.17" transform="translate(-90.01 126.97) rotate(-44.98)"></rect><polygon class="cls-1" points="88.58 151.61 87.76 152.44 86.9 151.57 87.71 150.75 88.58 151.61"></polygon><polygon class="cls-1" points="86.89 149.92 86.06 150.75 85.2 149.87 86.01 149.06 86.89 149.92"></polygon><polygon class="cls-5" points="88.51 148.29 87.67 149.13 86.82 148.25 87.64 147.43 88.51 148.29"></polygon><rect class="cls-2" x="88.77" y="149.36" width="1.17" height="1.22" transform="translate(-79.88 107.12) rotate(-45)"></rect><rect class="cls-3" x="107.71" y="127" width="1.22" height="1.22" transform="translate(-58.51 114.01) rotate(-45.01)"></rect><rect class="cls-3" x="109.41" y="125.31" width="1.22" height="1.22" transform="translate(-56.81 114.65) rotate(-44.99)"></rect><rect class="cls-2" x="111.1" y="127" width="1.22" height="1.22" transform="translate(-57.51 116.35) rotate(-44.99)"></rect><rect class="cls-2" x="109.41" y="128.69" width="1.22" height="1.22" transform="translate(-59.21 115.65) rotate(-44.99)"></rect><rect class="cls-2" x="131.63" y="150.95" width="1.22" height="1.15" transform="translate(-68.42 137.93) rotate(-45.01)"></rect><rect class="cls-2" x="130.01" y="149.32" width="1.22" height="1.17" transform="translate(-67.74 136.25) rotate(-44.99)"></rect><polygon class="cls-1" points="133.16 148.2 132.29 149.06 131.48 148.23 132.33 147.37 133.16 148.2"></polygon><polygon class="cls-1" points="134.78 149.81 133.91 150.68 133.1 149.86 133.1 149.85 133.96 148.99 134.78 149.81"></polygon><polygon class="cls-1" points="110.79 173.82 109.98 174.65 109.1 173.78 109.93 172.96 110.79 173.82"></polygon><polygon class="cls-1" points="208.67 74.28 208.67 75.92 201.65 82.94 201.65 82.95 200.73 83.85 200.73 83.86 199.98 84.6 197.61 86.97 134.78 149.81 133.96 148.99 136.77 146.19 196.79 86.15 201.44 81.5 201.67 81.27 206.32 76.63 207.78 75.16 208.67 74.28"></polygon><path class="cls-5" d="M208.67,71v1.62l-9.13,9.12-1.1,1.1c-.05-.27-.09-.55-.14-.83,0,.28.09.56.13.85v0L133.16,148.2l-.83-.83Z"></path><path class="cls-5" d="M207.78,76.8V96.16a98,98,0,0,1-43.93,81.16l-1.13.72-.37.26-.7.44c-.15.09-.29.2-.44.27a7.68,7.68,0,0,1-.71.45,98.14,98.14,0,0,1-99.37,1.27,7.75,7.75,0,0,1-.88-.49c-.54-.31-1.09-.64-1.64-1-.39-.23-.77-.46-1.15-.71A98,98,0,0,1,11.61,96.23c0-.24,0-.5,0-.73V76.33l1.46,1.46V92.7c0,.94-.06,1.87-.06,2.8,0,.23,0,.49,0,.73a96.54,96.54,0,0,0,45.45,81.3c.38.26.76.5,1.16.74s.75.43,1.11.67.79.44,1.18.68a97,97,0,0,0,96-.25c.38-.24.77-.47,1.16-.7s.74-.45,1.1-.67.79-.47,1.15-.72a96.61,96.61,0,0,0,45-81.12c0-.23,0-.44,0-.66,0-1.35,0-2.69-.08-4V78.26Z"></path><path class="cls-1" d="M101.41,195.59A99.27,99.27,0,0,1,60,182.76a6.16,6.16,0,0,1-.89-.51c-.74-.42-1.45-.85-2.14-1.29-.39-.24-.78-.48-1.17-.74a100.28,100.28,0,0,1-46.52-84c0-.24,0-.5,0-.73V69l1.46,1.46v25a98.91,98.91,0,0,0,46.1,83.71l1.16.72A98.24,98.24,0,0,0,99,194v1.4Z"></path><path class="cls-1" d="M105.42,195.83v0l-.7,0Z"></path><path class="cls-1" d="M108.67,195.93h0c-.55,0-1.07,0-1.61,0C107.59,195.92,108.12,195.93,108.67,195.93Z"></path><path class="cls-1" d="M124.09,194.87v0c-.57.09-1.16.17-1.75.24C122.93,195.07,123.5,195,124.09,194.87Z"></path><path class="cls-1" d="M210.13,69.58V95.5c0,.22,0,.43,0,.66a100.23,100.23,0,0,1-45,83.1c-.36.24-.75.51-1.15.75s-.72.47-1.12.71-.77.5-1.17.74a99.47,99.47,0,0,1-37.6,13.41v-1.38a99.22,99.22,0,0,1-14.32,1q-3.6,0-7.12-.26c2.32.16,4.68.24,7,.24a98.58,98.58,0,0,0,52.16-14.83c.39-.25.77-.47,1.16-.73a98.92,98.92,0,0,0,45.7-82.79l-.05-4V71Z"></path><polygon class="cls-5" points="87.64 147.43 86.82 148.25 21.04 82.49 21.04 82.47 19.92 81.34 19.21 80.63 18.05 79.48 13.06 74.48 12.43 73.85 11.6 73.02 10.7 72.12 10.7 70.49 21.27 81.06 21.27 81.07 24.79 84.58 87.64 147.43"></polygon><path class="cls-4" d="M122.34,195.14c.59-.07,1.18-.15,1.75-.24v0C123.5,195,122.93,195.07,122.34,195.14Z"></path><path class="cls-4" d="M109.77,194.53q-3.6,0-7.12-.26l-1.75-.15h-.07L99,194v1.4l2.37.24,2.49.18.82,0,.7,0a.71.71,0,0,0,.21,0c.36,0,.72,0,1.08,0h.35c.53,0,1.06,0,1.61,0h3.47l1.09,0c.35,0,.71,0,1,0l.9,0h.22l1.08-.07h.22l2.09-.17c.59-.06,1.19-.11,1.78-.18s1.18-.13,1.77-.21,1.16-.19,1.75-.27v-1.38A99.22,99.22,0,0,1,109.77,194.53Zm-.74.9h0Z"></path><path class="cls-4" d="M100.83,194.12,99,194v0C99.63,194,100.23,194.07,100.83,194.12Z"></path><path class="cls-4" d="M109.06,195.42h0Z"></path><rect class="cls-7" x="24.61" y="75.2" width="1.21" height="27.79" transform="translate(-55.61 43.92) rotate(-45)"></rect></svg>