<?xml version="1.0" encoding="utf-8"?>
<!-- Generator: Adobe Illustrator 24.2.0, SVG Export Plug-In . SVG Version: 6.00 Build 0)  -->
<svg version="1.1" id="Layer_1" xmlns="http://www.w3.org/2000/svg" xmlns:xlink="http://www.w3.org/1999/xlink" x="0px" y="0px"
	 viewBox="0 0 299.3 299.2" style="enable-background:new 0 0 299.3 299.2;" xml:space="preserve">
<style type="text/css">
	.st0{fill:#662F90;}
	.st1{fill:url(#SVGID_1_);}
	.st2{fill:url(#SVGID_2_);}
	.st3{fill:#069090;}
	.st4{fill:#7EC1BD;}
	.st5{fill:#00908F;}
	.st6{fill-rule:evenodd;clip-rule:evenodd;fill:#069090;}
	.st7{fill-rule:evenodd;clip-rule:evenodd;fill:#00908F;}
	.st8{fill-rule:evenodd;clip-rule:evenodd;fill:#7EC1BD;}
	.st9{fill-rule:evenodd;clip-rule:evenodd;fill:#C6DD74;}
	.st10{fill-rule:evenodd;clip-rule:evenodd;fill:#7EC1BC;}
	.st11{fill:#963585;}
	.st12{fill:none;}
	.st13{fill:#FFFFFF;}
	.st14{fill:#F8941D;}
	.st15{fill:#F15622;}
	.st16{fill:#D7DF23;}
	.st17{fill:#F9ED32;}
	.st18{fill:#C6DD74;}
	.st19{fill:#662D91;}
	.st20{fill:#262262;}
	.st21{fill:#FBB040;}
	.st22{fill:#1C3159;}
	.st23{fill:#27AAE1;}
	.st24{fill:#FCB45D;}
	.st25{fill:#F37221;}
	.st26{fill:#F5EB32;}
	.st27{fill:#FCB45E;}
	.st28{fill:#F37323;}
	.st29{fill-rule:evenodd;clip-rule:evenodd;fill:#FCB45E;}
	.st30{fill-rule:evenodd;clip-rule:evenodd;fill:#F37323;}
	.st31{fill:#D7DF27;}
	.st32{fill:#F4EB32;}
	.st33{fill-rule:evenodd;clip-rule:evenodd;fill:#D7DF27;}
	.st34{fill-rule:evenodd;clip-rule:evenodd;fill:#F4EB32;}
	.st35{fill:#282561;}
	.st36{fill:#F47D20;}
	.st37{fill:#FDFEFE;}
	.st38{fill:url(#SVGID_3_);}
	.st39{fill:url(#SVGID_4_);}
	.st40{fill:url(#SVGID_5_);}
	.st41{fill:url(#SVGID_6_);}
	.st42{fill:#09A54B;}
	.st43{fill-rule:evenodd;clip-rule:evenodd;fill:#0AA54B;}
	.st44{fill-rule:evenodd;clip-rule:evenodd;fill:#662F90;}
	.st45{fill-rule:evenodd;clip-rule:evenodd;fill:#09A54B;}
	.st46{fill:#26A9E1;}
	.st47{fill:#28A8E0;}
	.st48{fill-rule:evenodd;clip-rule:evenodd;fill:#26A9E1;}
	.st49{fill-rule:evenodd;clip-rule:evenodd;fill:#F37424;}
	.st50{fill-rule:evenodd;clip-rule:evenodd;fill:#28A8E0;}
	.st51{fill:#1B3159;}
	.st52{fill:#040504;}
	.st53{fill-rule:evenodd;clip-rule:evenodd;}
	.st54{fill-rule:evenodd;clip-rule:evenodd;fill:#FFFFFF;}
	.st55{fill:#FCB45E;stroke:#FFFFFF;stroke-miterlimit:10;}
	.st56{fill:#D7DF27;stroke:#FFFFFF;stroke-miterlimit:10;}
	.st57{fill:#F37323;stroke:#FFFFFF;stroke-miterlimit:10;}
	.st58{fill:#662F90;stroke:#FFFFFF;stroke-miterlimit:10;}
	.st59{fill:none;stroke:#FFFFFF;stroke-miterlimit:10;}
	.st60{fill:#97BBBB;}
	.st61{fill:#577A69;}
	.st62{fill:url(#SVGID_7_);}
	.st63{fill:url(#SVGID_8_);}
	.st64{fill:url(#SVGID_9_);}
	.st65{fill:url(#SVGID_10_);}
	.st66{fill:url(#SVGID_11_);}
	.st67{fill:url(#SVGID_12_);}
</style>
<path d="M231,141.9c0-0.4-0.1-0.8-0.2-1.2l1-1.1l0.1-0.1l0.1,0.6c0,0.3,0.1,0.5,0.1,0.8l-1,1.1l-0.2,0.2V141.9z M231.9,139.7l-1,1
	c0.1,0.4,0.1,0.8,0.2,1.2v0l1-1c0-0.3-0.1-0.5-0.1-0.8C231.9,140,231.9,139.8,231.9,139.7z M232.6,140.5l0.2-0.2l0.8-0.9
	c-0.1-0.4-0.1-0.8-0.2-1.2l0-0.2l-0.1,0.1l-0.8,0.9c0.1,0.4,0.1,0.8,0.2,1.2L232.6,140.5z M233.3,138.3l-0.8,0.8
	c0.1,0.4,0.1,0.8,0.2,1.2l0.8-0.8C233.4,139.1,233.4,138.7,233.3,138.3z M195.8,217.5L195.8,217.5c0.2-0.1,0.3-0.2,0.4-0.3
	c0.2-0.1,0.4-0.2,0.6-0.4l0.1-0.1l-1-1l-0.1,0.1c-0.3,0.2-0.6,0.4-0.9,0.6l-0.1,0.1L195.8,217.5z M195.9,216
	c-0.3,0.2-0.6,0.4-0.9,0.6l0.8,0.8c0.1-0.1,0.2-0.1,0.3-0.2c0.2-0.1,0.4-0.2,0.6-0.4L195.9,216z M114.1,218.2l1.4-1.4l17.4-17.4
	l-0.9-0.9l-19,19l0.1,0.1C113.4,217.8,113.7,218,114.1,218.2L114.1,218.2z M132,198.7l-18.9,18.9c0.3,0.2,0.6,0.4,0.9,0.6l1.3-1.3h0
	l17.4-17.4L132,198.7z M117.3,218l19.2-19.2l-0.9-0.9l-19.5,19.5l0.1,0.1C116.6,217.6,116.9,217.8,117.3,218L117.3,218z
	 M116.3,217.3c0.3,0.2,0.6,0.4,0.9,0.5l19.1-19.1l-0.7-0.7L116.3,217.3z M137.1,198.2l0.8-0.8l-0.9-0.9l-0.8,0.8L137.1,198.2z
	 M137,196.6l-0.7,0.7l0.7,0.7l0.7-0.7L137,196.6z M138.4,196.8l17-17l-0.9-0.9l-17,17L138.4,196.8z M154.6,179l-16.9,16.9l0.7,0.7
	l16.9-16.9L154.6,179z M156.1,179.2l0.9-0.9l-0.9-0.9l-0.9,0.9L156.1,179.2z M156,177.6l-0.7,0.7l0.7,0.7l0.7-0.7L156,177.6z
	 M78.3,140.7v-0.3c0-0.1,0-0.1,0-0.2c0-0.1,0-0.2,0.1-0.4c0-0.2,0.1-0.4,0.1-0.6l-0.8-0.8l0,0.2c-0.1,0.4-0.1,0.8-0.2,1.2l0,0.1
	l0.7,0.7L78.3,140.7z M77.7,138.7c-0.1,0.4-0.1,0.8-0.2,1.1c0,0,0,0.1,0,0.1l0.6,0.6v0c0,0,0,0,0-0.1c0-0.1,0-0.1,0-0.2
	c0-0.1,0-0.2,0-0.3c0-0.2,0.1-0.4,0.1-0.6L77.7,138.7z M132,194.5l0.1-0.1l-52.9-52.9c0-0.4,0.1-0.8,0.1-1.2l-1.1-1.1l0,0.2
	c0,0.2-0.1,0.4-0.1,0.6l0,0.1c0,0.1,0,0.2,0,0.3c0,0.1,0,0.1,0,0.3v0.1L132,194.5z M79.1,141.5L79.1,141.5
	C79.1,141.5,79.1,141.5,79.1,141.5c0.1-0.5,0.1-0.8,0.2-1.2l-1-1c0,0.2-0.1,0.4-0.1,0.6c0,0.1,0,0.2,0,0.3c0,0.1,0,0.1,0,0.2
	c0,0,0,0,0,0.1v0L79.1,141.5l53,53L79.1,141.5z M135.6,198.2l0.8-0.9l-0.9-0.9l-0.8,0.9L135.6,198.2z M134.9,197.3l0.7,0.7l0.7-0.7
	l-0.7-0.7L134.9,197.3z M153.2,215.7l0.9-0.9l-17-17l-0.8,0.9L153.2,215.7z M137.1,198l-0.7,0.7l16.8,16.8l0.7-0.7L137.1,198z
	 M154.6,217.1l0.9-0.9l-0.8-0.8l-0.9,0.9L154.6,217.1z M154.6,215.6l-0.7,0.7l0.7,0.7l0.7-0.7L154.6,215.6z M135.5,195.3l0.9-0.9
	l-56.8-56.8l-0.1,0.6c0,0.3-0.1,0.5-0.1,0.9L135.5,195.3z M79.5,139.1l56.1,56.1l0.7-0.7l-56.6-56.6
	C79.6,138.3,79.5,138.7,79.5,139.1z M137,196.8l0.9-0.9l-0.9-0.9l-0.9,0.9L137,196.8z M137,195.2l-0.7,0.7l0.7,0.7l0.7-0.7
	L137,195.2z M154.6,214.4l0.8-0.8l-17-17l-0.9,0.9L154.6,214.4z M137.7,197.4l16.8,16.8l0.7-0.7l-16.8-16.8L137.7,197.4z M156,215.7
	l0.8-0.8l-0.8-0.8l-0.8,0.8L156,215.7z M156,214.2l-0.7,0.7l0.7,0.7l0.7-0.7L156,214.2z M115.4,216.9l19.6-19.6l-0.9-0.9l-19.8,19.8
	L115.4,216.9z M114.5,216.2c0.3,0.2,0.6,0.4,0.9,0.6l19.5-19.5l-0.7-0.7L114.5,216.2z M135.6,196.7l0.8-0.8l-0.9-0.9l-0.8,0.8
	L135.6,196.7z M135.5,195.2l-0.7,0.7l0.7,0.7l0.7-0.7L135.5,195.2z M137,195.4l17-17l-0.9-0.9l-17,17L137,195.4z M153.2,177.6
	l-16.9,16.9l0.7,0.7l16.9-16.9L153.2,177.6z M154.6,177.7l0.9-0.9l-0.9-0.9l-0.9,0.9L154.6,177.7z M154.6,176.1l-0.7,0.7l0.7,0.7
	l0.7-0.7L154.6,176.1z M154.6,179.2l0.9-0.9l-0.9-0.9l-0.9,0.9L154.6,179.2z M154.6,177.6l-0.7,0.7l0.7,0.7l0.7-0.7L154.6,177.6z
	 M172.2,196.8l0.9-0.9l-17-17l-0.9,0.9L172.2,196.8z M156.1,179l-0.7,0.7l16.8,16.8l0.7-0.7L156.1,179z M173.6,198.1l0.9-0.9
	l-0.8-0.8l-0.9,0.9L173.6,198.1z M173.6,196.6l-0.7,0.7l0.7,0.7l0.7-0.7L173.6,196.6z M193.2,217.8l1.1-0.7L175,197.8l-0.9,0.9
	L193.2,217.8z M175,197.9l-0.7,0.7l19,19c0.3-0.2,0.6-0.4,0.9-0.6L175,197.9z M156,217.1l0.8-0.8l-0.8-0.9l-0.1,0.1l-0.7,0.8
	l0.1,0.1L156,217.1z M156,215.6l-0.7,0.7v0l0.1,0.1l0.5,0.6l0.1,0.1l0.7-0.7L156,215.6z M157.4,215.7l17-17l-0.8-0.8l-17.1,17
	L157.4,215.7z M173.6,198l-16.9,16.9l0.7,0.7l16.9-16.9L173.6,198z M175,198.1l0.9-0.9l-0.8-0.8l-0.9,0.9L175,198.1z M175,196.5
	l-0.7,0.7l0.7,0.7l0.7-0.7L175,196.5z M154.6,215.7l0.8-0.8l-0.9-0.9l-0.8,0.8L154.6,215.7z M153.9,214.9l0.7,0.7l0.7-0.7l-0.7-0.7
	L153.9,214.9z M156,214.4l17.1-17l-0.9-0.9l-17.1,17L156,214.4z M172.2,196.6l-16.9,16.9l0.7,0.7l16.9-16.9L172.2,196.6z
	 M173.6,196.7l0.9-0.9l-0.9-0.9l-0.9,0.9L173.6,196.7z M173.6,195.2l-0.7,0.7l0.7,0.7l0.7-0.7L173.6,195.2z M175.1,195.3l55.8-55.8
	l0-0.1c-0.1-0.4-0.1-0.7-0.2-1.1l0-0.2l-56.4,56.4L175.1,195.3z M230.5,138.3l-56.2,56.2l0.7,0.7l55.7-55.7
	C230.7,139.1,230.6,138.7,230.5,138.3z M156,177.7l0.9-0.9l-0.9-0.9l-0.9,0.9L156,177.7z M156.1,176.1l-0.7,0.7l0.7,0.7l0.7-0.7
	L156.1,176.1z M173.6,195.3l0.9-0.9l-17-17l-0.9,0.9L173.6,195.3z M157.5,177.6l-0.7,0.7l16.8,16.8l0.7-0.7L157.5,177.6z M175,196.7
	l0.9-0.9l-0.8-0.8l-0.9,0.9L175,196.7z M175.1,195.1l-0.7,0.7l0.7,0.7l0.7-0.7L175.1,195.1z M232.6,140.5l0.2-0.2l0.8-0.9
	c-0.1-0.4-0.1-0.8-0.2-1.2l0-0.2l-0.1,0.1l-0.8,0.9c0.1,0.4,0.1,0.8,0.2,1.2L232.6,140.5z M233.5,139.5l-0.8,0.8
	c0-0.4-0.1-0.8-0.2-1.2l0.8-0.8C233.4,138.7,233.4,139.1,233.5,139.5z M196.3,219.4l0.3-0.2c0.2-0.1,0.4-0.3,0.6-0.4
	c0.3-0.2,0.6-0.4,0.9-0.6c0.3-0.2,0.5-0.3,0.7-0.5l0.2-0.1c22.3-14.8,35.7-39.6,35.7-66.4c0-3.6-0.2-7.2-0.7-10.6l-0.1-0.9
	c-5.6-38.9-39.5-68.2-78.8-68.2c-39.4,0-73.3,29.4-78.8,68.3l-0.1,0.8c-0.5,3.5-0.7,7.1-0.7,10.5c0,27.3,13.8,52.5,36.9,67.2
	c0.3,0.2,0.6,0.4,0.9,0.6c0.5,0.4,1.1,0.7,1.7,1l0.1-0.1l0,0.1c0.2,0.1,0.4,0.3,0.6,0.4c11.9,6.8,25.6,10.4,39.4,10.4
	C169.6,230.9,183.9,226.9,196.3,219.4z M206.2,92c14.1,12.1,23.4,28.8,26.2,47.1l0,0.2l0.8-0.8c0.1,0.3,0.1,0.7,0.2,0.9l-0.8,0.9
	c0.5,3.6,0.8,7.3,0.8,11c0,26.8-13.5,51.5-36.1,66c-0.3,0.2-0.6,0.4-0.9,0.6c-12.4,7.7-26.6,11.7-41.2,11.7
	c-14.5,0-28.6-4-40.9-11.5c-0.3-0.2-0.6-0.4-0.9-0.6c-22.8-14.5-36.5-39.2-36.5-66.2c0-3.8,0.3-7.6,0.8-11.4
	c0.1-0.4,0.1-0.8,0.2-1.2c2.9-18.1,12.3-34.7,26.3-46.8c14.2-12.2,32.3-18.9,51-18.9C173.8,73,192,79.7,206.2,92z M232,141.1
	l0.2-0.2l0.7-0.7c0-0.4-0.1-0.8-0.2-1.2l0-0.2l-0.1,0.1l-0.7,0.7l0.1,0.4c0,0.3,0.1,0.5,0.1,0.8L232,141.1z M232.5,139l-0.6,0.6
	c0,0.1,0,0.3,0.1,0.4c0,0.3,0.1,0.5,0.1,0.8l0.6-0.6C232.6,139.9,232.6,139.4,232.5,139z M196.4,218L196.4,218
	c0.4-0.2,0.7-0.4,1-0.6l0.1-0.1l-0.7-0.7l-0.1,0.1c-0.2,0.1-0.4,0.2-0.6,0.4c-0.1,0.1-0.2,0.1-0.3,0.2l-0.1,0.1L196.4,218z
	 M196.8,216.8c-0.2,0.1-0.4,0.2-0.6,0.4c-0.1,0.1-0.2,0.1-0.3,0.2l0.5,0.5c0.3-0.2,0.6-0.4,0.9-0.6L196.8,216.8z M195.3,217.8
	c0.2-0.1,0.4-0.2,0.6-0.4c0.1-0.1,0.2-0.1,0.4-0.2c0.2-0.1,0.4-0.2,0.6-0.4c0.1-0.1,0.2-0.1,0.3-0.2c0.3-0.2,0.6-0.4,0.9-0.6
	c21.8-14.5,34.8-38.7,34.8-64.9c0-3.5-0.2-7-0.7-10.4c0-0.3-0.1-0.5-0.1-0.8l-0.1-0.4c-2.7-18.2-11.9-35-25.9-47.1
	c-14.1-12.3-32.2-19-51-19c-18.7,0-36.7,6.7-50.8,18.9c-14,12.1-23.2,28.7-26,46.8l0,0.1c0,0.2-0.1,0.4-0.1,0.6l0,0.1
	c0,0.1,0,0.2,0,0.3c0,0.1,0,0.1,0,0.2l0,0.1c0,0.1,0,0.2,0,0.2c0,0.1,0,0.2,0,0.2c-0.4,3.3-0.7,6.8-0.7,10.2
	c0,26.9,13.6,51.5,36.4,65.8c0.3,0.2,0.6,0.4,0.9,0.6c0.4,0.3,0.9,0.5,1.3,0.8c0.2,0.1,0.5,0.3,0.7,0.4c11.7,6.7,25,10.2,38.5,10.2
	C169.3,229.1,183.2,225.2,195.3,217.8z M230.4,138.3l0.2,1.2c0.1,0.4,0.1,0.8,0.2,1.2c0.1,0.4,0.1,0.8,0.2,1.2
	c0.4,3,0.6,6.1,0.6,9.4c0,26.4-13.3,50.5-35.6,64.7c-0.3,0.2-0.6,0.4-0.9,0.6c-0.2,0.1-0.5,0.3-0.7,0.4l-1.1,0.6
	c-11.5,6.6-24.7,10.2-38.1,10.2c-13.2,0-26.3-3.4-37.8-10c-0.3-0.2-0.6-0.4-0.9-0.5c-0.2-0.1-0.4-0.2-0.5-0.3l-0.4-0.2
	c-0.2-0.1-0.9-0.6-0.9-0.6C92,202,78.6,177.8,78.6,151.3c0-3.2,0.2-6.5,0.6-9.8c0-0.4,0.1-0.8,0.2-1.2l0-0.4c0-0.2,0.1-0.5,0.1-0.7
	l0.2-1.2c6.4-36.6,38.1-63.1,75.3-63.1C192.5,74.8,224.1,101.5,230.4,138.3z M132.1,194.6l0.1-0.1l-53-53l-0.1,0.1L132.1,194.6
	L132.1,194.6z M79.1,141.5l53,52.9l0,0L79.1,141.5z M134.2,196.7l0.8-0.8L79.2,140v0.3c-0.1,0.4-0.1,0.8-0.2,1.1l0,0.2L134.2,196.7z
	 M79.3,140.3C79.3,140.3,79.3,140.3,79.3,140.3c-0.1,0.4-0.1,0.8-0.2,1.2c0,0,0,0,0,0.1v0l53,53l2.1,2.1l0.7-0.7L79.3,140.3z
	 M195,216.7L195,216.7c0.4-0.2,0.7-0.4,1-0.6l0.1-0.1l-17.7-17.7l-2-2l-0.9,0.9l2,2L195,216.7z M178.4,198.4l-1.9-1.9l-0.7,0.7
	l1.9,1.9l17.4,17.4c0.3-0.2,0.6-0.4,0.9-0.6L178.4,198.4z M176.5,196.7l54.7-54.8c0-0.4-0.1-0.8-0.2-1.2l0-0.2l-52.9,52.9l-2.5,2.5
	L176.5,196.7z M230.9,140.6l-52.8,52.8l-2.4,2.4l0.7,0.7l54.6-54.6v0C231,141.5,231,141.1,230.9,140.6z M155.8,217l0.1-0.1l-0.5-0.6
	l-0.1-0.1l-0.2,0.1L155.8,217z M155.4,216.3L155.4,216.3l0.5,0.6L155.4,216.3z M156.7,216.4l0.9-0.9l-0.9-0.8l-0.8,0.8L156.7,216.4z
	 M156.7,214.9l-0.7,0.7l0.7,0.7l0.7-0.7L156.7,214.9z M155.3,215.1l0.8-0.8l-0.9-0.9l-0.8,0.8L155.3,215.1z M155.3,213.5l-0.7,0.7
	l0.7,0.7l0.7-0.7L155.3,213.5z M153.9,216.4l0.9-0.9l-0.9-0.9l-0.9,0.9L153.9,216.4z M153.9,214.9l-0.7,0.7l0.7,0.7l0.7-0.7
	L153.9,214.9z M136.4,198.9l0.8-0.9l-0.9-0.9l-0.8,0.9L136.4,198.9z M136.3,197.3l-0.7,0.7l0.7,0.7l0.7-0.7L136.3,197.3z
	 M134.9,197.5l0.9-0.9l-0.9-0.9l-0.8,0.8L134.9,197.5z M134.9,195.9l-0.7,0.7l0.7,0.7l0.7-0.7L134.9,195.9z M136.3,196.1l0.9-0.9
	l-0.9-0.9l-0.9,0.9L136.3,196.1z M136.3,194.5l-0.7,0.7l0.7,0.7l0.7-0.7L136.3,194.5z M137.7,197.5l0.9-0.9l-0.9-0.9l-0.9,0.9
	L137.7,197.5z M137.7,195.9l-0.7,0.7l0.7,0.7l0.7-0.7L137.7,195.9z M153.9,178.5l0.9-0.9l-0.9-0.9l-0.9,0.9L153.9,178.5z
	 M153.9,176.8l-0.7,0.7l0.7,0.7l0.7-0.7L153.9,176.8z M155.3,177l0.9-0.9l-0.9-0.9l-0.9,0.9L155.3,177z M155.3,175.4l-0.7,0.7
	l0.7,0.7l0.7-0.7L155.3,175.4z M156.8,178.5l0.9-0.9l-0.9-0.9l-0.9,0.9L156.8,178.5z M156.8,176.8l-0.7,0.7l0.7,0.7l0.7-0.7
	L156.8,176.8z M155.3,179.9l0.9-0.9l-0.9-0.9l-0.9,0.9L155.3,179.9z M155.3,178.3l-0.7,0.7l0.7,0.7l0.7-0.7L155.3,178.3z
	 M174.3,198.8l0.9-0.9l-0.8-0.8l-0.9,0.9L174.3,198.8z M174.3,197.3l-0.7,0.7l0.7,0.7l0.7-0.7L174.3,197.3z M172.9,197.5l0.9-0.9
	l-0.9-0.9l-0.9,0.9L172.9,197.5z M172.9,195.9l-0.7,0.7l0.7,0.7l0.7-0.7L172.9,195.9z M174.3,196l0.9-0.9l-0.9-0.9l-0.9,0.9
	L174.3,196z M174.4,194.4l-0.7,0.7l0.7,0.7l0.7-0.7L174.4,194.4z M175.7,197.4l0.9-0.9l-0.9-0.8l-0.9,0.9L175.7,197.4z M175.7,195.8
	l-0.7,0.7l0.7,0.7l0.7-0.7L175.7,195.8z M155.3,217.8l0.8-0.9l-0.9-0.9l-0.9,0.8L155.3,217.8z M155.3,216.2l-0.7,0.7l0.7,0.7
	l0.7-0.7L155.3,216.2z M104.5,104.2v14.5h4.3c4.2,0,6.6-2.5,6.6-7.4c0-3.9-1.7-7.1-6.8-7.1H104.5z M108.8,117.5h-3.2v-12.1h3.1
	c4.1,0,5.5,2.7,5.5,5.9C114.2,115.5,112.2,117.5,108.8,117.5z M118.3,104.2v14.5h8.1v-1.2h-7V112h6.3v-1.2h-6.3v-5.3h6.6v-1.2H118.3
	z M128.1,111.6c0,4.2,2.5,7.6,6.7,7.6c2.1,0,3.8-0.9,5-2.3l-0.8-1c-1,1.2-2.5,1.9-4.2,1.9c-3.4,0-5.4-2.8-5.4-6.3
	c0-3.4,2-6.4,5.4-6.4c1.6,0,3,0.6,3.9,1.6l0.8-1c-1.1-1.2-2.7-1.9-4.6-1.9C130.5,103.8,128.1,107.4,128.1,111.6z M145.6,104.2
	l-5,14.5h1.2l1.4-4h5.9l1.4,4h1.2l-5-14.5H145.6z M148.6,113.5h-5.1l2.5-7.5L148.6,113.5z M153.8,104.2v14.5h4.3
	c4.2,0,6.6-2.5,6.6-7.4c0-3.9-1.7-7.1-6.8-7.1H153.8z M158.1,117.5H155v-12.1h3.1c4.1,0,5.5,2.7,5.5,5.9
	C163.5,115.5,161.5,117.5,158.1,117.5z M167.6,104.2v14.5h8.1v-1.2h-7V112h6.3v-1.2h-6.3v-5.3h6.6v-1.2H167.6z M182,111.6
	c0,4.2,2.5,7.6,6.7,7.6c4.3,0,6.8-3.6,6.8-7.7s-2.5-7.6-6.7-7.6C184.5,103.8,182,107.4,182,111.6z M183.3,111.6
	c0-3.7,2.2-6.4,5.5-6.4c3.1,0,5.4,2.5,5.4,6.3c0,3.7-2.2,6.4-5.5,6.4C185.5,117.8,183.3,115.3,183.3,111.6z M198.3,104.2v14.5h1.2
	v-6.4h6v-1.2h-6v-5.6h6.6v-1.2H198.3z M33.6,166.3c2.1-0.5,3.9-1.1,5.4-1.6c1.7-0.7,3.3-1.5,4.5-2.5l0.1-0.1l-7.5-11.8l-0.1,0.1
	c-0.7,0.6-1.5,1.2-2.4,1.6c-0.8,0.4-1.8,0.8-2.9,1.1c-1.2,0.3-2.5,0.5-4,0.5c-1.5,0-2.9-0.2-4.1-0.7c-1.2-0.5-2.4-1.1-3.3-1.9
	c-0.9-0.8-1.7-1.7-2.2-2.8c-0.5-1-0.8-2.2-0.8-3.4c0-1.2,0.3-2.3,0.8-3.4c0.5-1,1.2-2,2.1-2.8c0.9-0.8,2-1.4,3.2-1.9
	c1.2-0.5,2.5-0.7,4-0.7c1.4,0,2.6,0.2,3.7,0.5c1.1,0.3,2,0.6,2.8,1c0.9,0.5,1.7,0.9,2.5,1.4l0.1,0.1l7.5-11.8l-0.1-0.1
	c-1.3-0.8-2.8-1.5-4.5-2.2c-1.5-0.6-3.3-1.1-5.4-1.6c-2.1-0.5-4.5-0.7-7.2-0.7c-3.4,0-6.6,0.5-9.6,1.5c-3,1-5.7,2.5-7.9,4.4
	c-2.3,1.9-4.1,4.3-5.4,7c-1.3,2.7-2,5.8-2,9.1c0,3.3,0.6,6.3,1.9,9c1.3,2.7,3.1,5,5.3,7c2.2,1.9,5,3.4,8.1,4.5
	c3.1,1.1,6.5,1.6,10.2,1.6C29,167.1,31.4,166.8,33.6,166.3z M2.9,154c1.3,2.7,3,5,5.3,6.9c2.3,1.9,4.9,3.4,8,4.5
	c3.1,1.1,6.5,1.6,10.1,1.6c2.7,0,5.1-0.3,7.2-0.8c2.1-0.5,3.9-1,5.4-1.6c1.7-0.7,3.2-1.5,4.5-2.4l-7.4-11.6
	c-0.7,0.6-1.5,1.2-2.5,1.6c-0.8,0.4-1.8,0.8-3,1.1c-1.2,0.3-2.5,0.5-4,0.5c-1.5,0-2.9-0.2-4.2-0.7c-1.3-0.5-2.4-1.1-3.3-1.9
	c-0.9-0.8-1.7-1.7-2.2-2.8c-0.5-1.1-0.8-2.2-0.8-3.4c0-1.2,0.3-2.4,0.8-3.4c0.5-1.1,1.2-2,2.1-2.8c0.9-0.8,2-1.4,3.2-1.9
	c1.2-0.5,2.6-0.7,4-0.7c1.4,0,2.7,0.2,3.8,0.5c1.1,0.3,2.1,0.6,2.8,1c0.9,0.5,1.7,0.9,2.5,1.4l7.4-11.6c-1.3-0.8-2.8-1.5-4.5-2.2
	c-1.5-0.6-3.3-1.1-5.4-1.6c-2.1-0.5-4.5-0.7-7.1-0.7c-3.4,0-6.6,0.5-9.6,1.5c-3,1-5.6,2.5-7.9,4.4c-2.3,1.9-4,4.2-5.3,6.9
	c-1.3,2.7-2,5.7-2,9.1C1,148.3,1.6,151.3,2.9,154z M74.2,165.4c3-1.1,5.7-2.7,7.9-4.7c2.2-2,4-4.3,5.3-7c1.3-2.7,1.9-5.6,1.9-8.6
	c0-3-0.7-5.9-1.9-8.6c-1.3-2.7-3.1-5-5.3-7c-2.2-2-4.9-3.6-7.9-4.7c-3-1.1-6.2-1.7-9.6-1.7c-3.4,0-6.6,0.6-9.6,1.7
	c-3,1.1-5.6,2.7-7.9,4.7c-2.2,2-4,4.3-5.3,7c-1.3,2.7-1.9,5.6-1.9,8.6c0,3,0.7,5.9,1.9,8.6c1.3,2.7,3.1,5,5.3,7
	c2.2,2,4.9,3.6,7.9,4.7c3,1.1,6.2,1.7,9.6,1.7C67.9,167.1,71.2,166.5,74.2,165.4z M68.4,137.1c1.2,0.5,2.2,1.1,3.1,1.9
	c0.9,0.8,1.6,1.7,2.1,2.8c0.5,1,0.8,2.2,0.8,3.4c0,1.2-0.3,2.3-0.8,3.4c-0.5,1.1-1.2,2-2.1,2.8c-0.9,0.8-1.9,1.4-3.1,1.9
	c-1.2,0.5-2.5,0.7-3.8,0.7c-1.3,0-2.6-0.2-3.8-0.7c-1.2-0.5-2.2-1.1-3.1-1.9c-0.9-0.8-1.6-1.7-2.1-2.8c-0.5-1-0.8-2.2-0.8-3.4
	c0-1.2,0.3-2.3,0.8-3.4c0.5-1,1.2-2,2.1-2.8c0.9-0.8,1.9-1.4,3.1-1.9c1.2-0.5,2.5-0.7,3.8-0.7C65.9,136.4,67.2,136.6,68.4,137.1z
	 M41.9,153.6c1.3,2.7,3,5,5.3,7c2.2,2,4.8,3.6,7.8,4.7c3,1.1,6.2,1.7,9.6,1.7c3.4,0,6.6-0.6,9.6-1.7c3-1.1,5.6-2.7,7.8-4.7
	c2.2-2,4-4.3,5.3-7c1.3-2.7,1.9-5.5,1.9-8.5c0-3-0.6-5.8-1.9-8.5c-1.3-2.7-3-5-5.3-7c-2.2-2-4.8-3.6-7.8-4.7c-3-1.1-6.2-1.7-9.6-1.7
	c-3.4,0-6.6,0.6-9.6,1.7c-3,1.1-5.6,2.7-7.8,4.7c-2.2,2-4,4.3-5.3,7c-1.3,2.7-1.9,5.5-1.9,8.5C39.9,148.1,40.6,150.9,41.9,153.6z
	 M55.5,141.6c0.5-1.1,1.2-2,2.1-2.8c0.9-0.8,1.9-1.4,3.1-1.9c1.2-0.5,2.5-0.7,3.8-0.7c1.4,0,2.6,0.2,3.8,0.7
	c1.2,0.5,2.2,1.1,3.1,1.9c0.9,0.8,1.6,1.7,2.1,2.8c0.5,1.1,0.8,2.2,0.8,3.4c0,1.2-0.3,2.4-0.8,3.4c-0.5,1.1-1.2,2-2.1,2.8
	c-0.9,0.8-1.9,1.4-3.1,1.9c-1.2,0.5-2.5,0.7-3.8,0.7c-1.4,0-2.6-0.2-3.8-0.7c-1.2-0.5-2.2-1.1-3.1-1.9c-0.9-0.8-1.6-1.7-2.1-2.8
	c-0.5-1.1-0.8-2.2-0.8-3.4C54.7,143.8,55,142.7,55.5,141.6z M120.3,166.1c2.4-0.7,4.5-1.7,6.2-3c1.7-1.3,3.1-3.1,4-5.1
	c0.9-2.1,1.4-4.5,1.4-7.3V124h-15.3v26.1c0,1.4-0.3,2.5-1,3.3c-0.7,0.7-1.8,1.1-3.3,1.1c-1.6,0-2.7-0.4-3.3-1.1
	c-0.7-0.7-1-1.9-1-3.3V124H92.7v26.7c0,2.8,0.5,5.2,1.4,7.3c0.9,2.1,2.2,3.8,3.9,5.1c1.7,1.3,3.8,2.4,6.2,3c2.4,0.7,5.1,1,8,1
	C115.2,167.1,117.9,166.8,120.3,166.1z M120.3,166c2.4-0.7,4.4-1.7,6.2-3c1.7-1.3,3-3,3.9-5.1c0.9-2,1.4-4.5,1.4-7.2v-26.6h-15.1v26
	c0,1.5-0.3,2.6-1,3.4c-0.7,0.8-1.8,1.2-3.4,1.2c-1.6,0-2.7-0.4-3.4-1.2c-0.7-0.8-1-1.9-1-3.4v-26h-15v26.6c0,2.8,0.5,5.2,1.4,7.2
	c0.9,2,2.2,3.7,3.9,5.1c1.7,1.3,3.7,2.3,6.1,3c2.4,0.7,5.1,1,8,1C115.2,167,117.9,166.7,120.3,166z M176.3,166l-8.8-13.9
	c1.1-0.7,2.2-1.7,3.1-2.7c0.8-1,1.5-2.2,2.2-3.7c0.7-1.5,1-3.3,1-5.4c0-2.6-0.5-5-1.6-7c-1.1-2-2.5-3.8-4.4-5.1
	c-1.9-1.4-4.1-2.4-6.7-3.1c-2.6-0.7-5.4-1.1-8.4-1.1h-16.3v42h15.2v-10.4l6.9,10.4H176.3z M151.5,144.6v-9.1h0.7
	c1.8,0,3.3,0.4,4.5,1.1c1.2,0.7,1.8,1.9,1.8,3.5c0,1.6-0.6,2.8-1.8,3.5c-1.2,0.7-2.7,1.1-4.5,1.1H151.5z M136.5,165.9h15v-10.6
	l7,10.6h17.6l-8.8-13.8c1.2-0.8,2.2-1.7,3.2-2.8c0.8-1,1.5-2.2,2.2-3.6c0.7-1.5,1-3.2,1-5.3c0-2.6-0.5-5-1.6-7
	c-1.1-2-2.5-3.7-4.4-5.1c-1.9-1.4-4.1-2.4-6.6-3.1c-2.6-0.7-5.3-1.1-8.3-1.1h-16.2V165.9z M151.4,135.4h0.8c1.8,0,3.3,0.4,4.5,1.1
	c1.2,0.7,1.9,1.9,1.9,3.6c0,1.7-0.6,2.9-1.9,3.6c-1.2,0.7-2.8,1.1-4.5,1.1h-0.8V135.4z M223.8,166l-17.9-42h-11.4l-17.9,42h15
	l1.5-3.8h14.1l1.5,3.8H223.8z M197.2,152.8l3-7l3,7H197.2z M176.8,165.9h14.8l1.5-3.8h14.2l1.5,3.8h14.8l-17.8-41.8h-11.3
	L176.8,165.9z M197,153l3.2-7.3l3.2,7.3H197z M251.4,166.3c2.2-0.5,4.2-1.3,6-2.3c1.9-1,3.6-2.2,5.1-3.6c1.5-1.4,2.8-3,3.9-4.7v-14
	h-18.3v9h4.1c-0.9,0.9-2,1.7-3.2,2.3c-1.3,0.6-2.7,0.9-4.3,0.9c-1.3,0-2.6-0.2-3.8-0.7c-1.2-0.4-2.2-1-3.1-1.8
	c-0.9-0.8-1.6-1.7-2.1-2.8c-0.5-1.1-0.8-2.2-0.8-3.5c0-1.2,0.2-2.4,0.7-3.5c0.5-1.1,1.1-2,1.9-2.8c0.8-0.8,1.8-1.4,2.9-1.8
	c1.1-0.4,2.3-0.7,3.7-0.7c1.2,0,2.4,0.2,3.7,0.5c1.2,0.3,2.3,0.9,3.1,1.5l0.1,0.1l8.6-10.9l-0.1-0.1c-1-0.8-2.3-1.5-3.9-2.2
	c-1.3-0.6-3-1.1-4.9-1.6c-1.9-0.5-4.2-0.7-6.8-0.7c-3.4,0-6.6,0.6-9.5,1.7c-2.9,1.1-5.5,2.7-7.6,4.7c-2.1,2-3.8,4.3-5.1,7
	c-1.2,2.7-1.8,5.6-1.8,8.6c0,3.1,0.7,6,1.9,8.7c1.3,2.7,3.1,5,5.3,7c2.2,2,4.9,3.5,7.9,4.7c3,1.1,6.2,1.7,9.6,1.7
	C247,167.1,249.3,166.8,251.4,166.3z M259.6,127.6c-1-0.8-2.3-1.5-3.9-2.2c-1.3-0.6-2.9-1.1-4.9-1.6c-1.9-0.5-4.2-0.7-6.8-0.7
	c-3.4,0-6.5,0.6-9.5,1.7c-2.9,1.1-5.5,2.7-7.6,4.7c-2.1,2-3.8,4.3-5,7c-1.2,2.7-1.8,5.5-1.8,8.5c0,3.1,0.6,6,1.9,8.7
	c1.3,2.7,3,5,5.3,7c2.2,2,4.8,3.5,7.8,4.6c3,1.1,6.2,1.7,9.6,1.7c2.3,0,4.5-0.3,6.7-0.8c2.2-0.5,4.2-1.3,6-2.3c1.9-1,3.5-2.2,5-3.6
	c1.5-1.4,2.8-3,3.9-4.7v-13.9h-18.1v8.8h4.2c-0.9,1-2.1,1.9-3.4,2.5c-1.3,0.6-2.8,0.9-4.4,0.9c-1.4,0-2.6-0.2-3.8-0.7
	c-1.2-0.4-2.2-1-3.1-1.8c-0.9-0.8-1.6-1.7-2.1-2.8c-0.5-1.1-0.8-2.3-0.8-3.5c0-1.3,0.2-2.4,0.7-3.5c0.5-1.1,1.1-2,1.9-2.8
	c0.8-0.8,1.8-1.4,2.9-1.8c1.1-0.4,2.4-0.7,3.7-0.7c1.2,0,2.5,0.2,3.7,0.5c1.3,0.4,2.3,0.9,3.2,1.5L259.6,127.6z M298.4,166v-11.2
	h-13.2v-4.6h12.5v-10.6h-12.5v-4.4h12.7V124h-27.9v42H298.4z M270.2,165.9h28.1v-11h-13.2v-4.8h12.5v-10.4h-12.5v-4.6h12.7v-11
	h-27.6V165.9z"/>
</svg>
